<?xml version="1.0" encoding="UTF-8"?>
<svg version="1.1" xmlns="http://www.w3.org/2000/svg" width="500" height="500">
<path d="M0 0 C2.51120392 2.48559352 4.94844418 4.96328624 7.27148438 7.62841797 C7.27148438 8.28841797 7.27148438 8.94841797 7.27148438 9.62841797 C7.93148437 9.62841797 8.59148437 9.62841797 9.27148438 9.62841797 C11.1118698 11.88379226 12.82999166 14.13977354 14.52148438 16.50341797 C15.01874023 17.1937915 15.51599609 17.88416504 16.02832031 18.59545898 C33.27148438 42.7488577 33.27148438 42.7488577 33.27148438 52.62841797 C28.53058838 54.78128861 23.76645544 56.87828142 18.95898438 58.87841797 C18.15847656 59.21357422 17.35796875 59.54873047 16.53320312 59.89404297 C14.27148438 60.62841797 14.27148438 60.62841797 10.27148438 60.62841797 C9.68753906 59.15695313 9.68753906 59.15695313 9.09179688 57.65576172 C3.65487879 44.37933504 -3.32775067 32.64304564 -13.33007812 22.26513672 C-14.72851562 20.62841797 -14.72851562 20.62841797 -14.72851562 18.62841797 C-15.29054688 18.37060547 -15.85257813 18.11279297 -16.43164062 17.84716797 C-18.99556141 16.4867202 -21.18077928 14.90052835 -23.47851562 13.12841797 C-24.67734375 12.21576172 -24.67734375 12.21576172 -25.90039062 11.28466797 C-26.50367188 10.73810547 -27.10695313 10.19154297 -27.72851562 9.62841797 C-27.72851562 8.96841797 -27.72851562 8.30841797 -27.72851562 7.62841797 C-28.71851563 7.28810547 -28.71851563 7.28810547 -29.72851562 6.94091797 C-33.61510191 5.24053647 -37.3653138 3.23218712 -40.72851562 0.62841797 C-40.72851562 -0.03158203 -40.72851562 -0.69158203 -40.72851562 -1.37158203 C-41.42460937 -1.47857422 -42.12070312 -1.58556641 -42.83789062 -1.69580078 C-46.14656502 -2.4693152 -48.90113552 -3.74383897 -51.97851562 -5.18408203 C-79.36345474 -17.36491465 -111.13682032 -16.66115353 -139.06445312 -6.81298828 C-149.60925588 -2.6647663 -158.85265662 2.60818446 -167.72851562 9.62841797 C-168.71335937 10.39798828 -169.69820313 11.16755859 -170.71289062 11.96044922 C-175.27254738 15.5973183 -179.13676257 19.02081556 -182.72851562 23.62841797 C-184.05923202 24.96436311 -185.39259079 26.29768119 -186.72851562 27.62841797 C-207.26315513 51.22558497 -214.8257651 83.03324916 -212.72851562 113.62841797 C-210.12794464 136.0573665 -200.8337962 157.15678838 -186.72851562 174.62841797 C-186.18839844 175.39669922 -185.64828125 176.16498047 -185.09179688 176.95654297 C-184.64191406 177.50826172 -184.19203125 178.05998047 -183.72851562 178.62841797 C-183.06851563 178.62841797 -182.40851563 178.62841797 -181.72851562 178.62841797 C-178.65050646 175.09643637 -178.65050646 175.09643637 -177.91601562 170.71435547 C-178.91548542 168.14840899 -180.28083094 166.21976101 -181.91601562 164.00341797 C-198.57743852 140.73194182 -206.06342479 113.24221322 -201.54101562 84.69091797 C-198.90082937 69.64106347 -193.2349415 56.83592678 -185.72851562 43.62841797 C-185.18453125 42.64099609 -184.64054687 41.65357422 -184.08007812 40.63623047 C-183.6340625 39.97365234 -183.18804687 39.31107422 -182.72851562 38.62841797 C-182.06851563 38.62841797 -181.40851563 38.62841797 -180.72851562 38.62841797 C-180.47070312 38.05607422 -180.21289062 37.48373047 -179.94726562 36.89404297 C-178.6148562 34.41712802 -177.07795444 32.49430136 -175.22851562 30.37841797 C-174.62007813 29.67201172 -174.01164062 28.96560547 -173.38476562 28.23779297 C-171.72851562 26.62841797 -171.72851562 26.62841797 -169.72851562 26.62841797 C-169.52097656 26.06896484 -169.3134375 25.50951172 -169.09960938 24.93310547 C-167.23846862 21.80469224 -164.65988687 19.90115668 -161.79101562 17.75341797 C-161.20690918 17.31288086 -160.62280273 16.87234375 -160.02099609 16.41845703 C-136.99824281 -0.61550177 -108.48444994 -6.62713967 -80.27148438 -2.87158203 C-56.62732595 1.48587544 -34.44490898 13.27322276 -18.72851562 31.62841797 C-18.72851562 32.28841797 -18.72851562 32.94841797 -18.72851562 33.62841797 C-18.06851563 33.62841797 -17.40851563 33.62841797 -16.72851562 33.62841797 C-12.26654692 38.86218667 -8.83498866 44.99193635 -5.41601562 50.94091797 C-5.07876465 51.52695801 -4.74151367 52.11299805 -4.39404297 52.71679688 C0.43262663 61.27017247 0.43262663 61.27017247 0.02954102 64.66772461 C-0.72851562 66.62841797 -0.72851562 66.62841797 -4.15039062 68.33154297 C-5.587099 68.86365718 -7.03023474 69.37865907 -8.47851562 69.87841797 C-9.19523438 70.14654297 -9.91195312 70.41466797 -10.65039062 70.69091797 C-18.02474673 73.34785509 -18.02474673 73.34785509 -21.72851562 72.62841797 C-24.56351625 69.78655293 -26.14004716 66.07289533 -27.91601562 62.50341797 C-28.44582031 61.44896484 -28.975625 60.39451172 -29.52148438 59.30810547 C-30.72851562 56.62841797 -30.72851562 56.62841797 -30.72851562 54.62841797 C-31.38851562 54.62841797 -32.04851562 54.62841797 -32.72851562 54.62841797 C-36.72851562 49.21665326 -36.72851562 49.21665326 -36.72851562 46.62841797 C-37.29441406 46.38607422 -37.8603125 46.14373047 -38.44335938 45.89404297 C-41.16331819 44.38760424 -43.05845785 42.54109337 -45.29101562 40.37841797 C-50.35499932 35.73208241 -55.5911058 32.64620923 -61.72851562 29.62841797 C-62.42847656 29.24943359 -63.1284375 28.87044922 -63.84960938 28.47998047 C-79.87863962 19.90106287 -101.30397242 19.20392626 -118.72851562 23.62841797 C-141.11332465 30.45563368 -157.75919402 44.6865524 -169.47851562 64.81591797 C-179.44807087 83.89008987 -179.72735965 106.18607469 -173.62695312 126.48388672 C-170.78757711 134.88294415 -167.33554122 143.47098287 -160.72851562 149.62841797 C-160.1690625 148.83822266 -159.60960937 148.04802734 -159.03320312 147.23388672 C-154.00047535 140.14698434 -148.89587047 133.11780842 -143.72851562 126.12841797 C-139.46692364 120.35981149 -135.21925335 114.58278432 -131.04101562 108.75341797 C-130.27402344 107.68349609 -129.50703125 106.61357422 -128.71679688 105.51123047 C-126.69602332 102.71143835 -126.69602332 102.71143835 -125.27148438 99.80810547 C-123.72851562 97.62841797 -123.72851562 97.62841797 -121.55908203 96.80688477 C-117.77646894 96.56839157 -115.1769012 97.91463054 -111.89648438 99.59326172 C-111.25987381 99.9054213 -110.62326324 100.21758087 -109.96736145 100.53919983 C-107.94357957 101.53524561 -105.9299675 102.5501669 -103.91601562 103.56591797 C-102.54229429 104.24622323 -101.16795114 104.92527445 -99.79296875 105.60302734 C-96.43077322 107.26371373 -93.07756537 108.94138837 -89.72851562 110.62841797 C-86.22731442 107.21419866 -83.54678583 104.02223334 -81.04101562 99.81591797 C-79.99094225 98.05337796 -78.89969863 96.31291545 -77.72851562 94.62841797 C-77.06851563 94.62841797 -76.40851563 94.62841797 -75.72851562 94.62841797 C-75.45265625 94.05607422 -75.17679688 93.48373047 -74.89257812 92.89404297 C-73.73383715 90.6387753 -72.45975857 88.51985419 -71.10351562 86.37841797 C-70.43449219 85.31880859 -70.43449219 85.31880859 -69.75195312 84.23779297 C-69.41421875 83.70669922 -69.07648438 83.17560547 -68.72851562 82.62841797 C-63.56880008 83.13694469 -59.83610181 84.31282799 -55.27148438 86.74560547 C-54.04281215 87.3858178 -52.81277811 88.02342195 -51.58154297 88.65869141 C-50.94923767 88.98591187 -50.31693237 89.31313232 -49.66546631 89.65026855 C-46.4754628 91.26120273 -43.22566614 92.73335912 -39.96679688 94.19873047 C-39.31629364 94.49173035 -38.66579041 94.78473022 -37.99557495 95.08660889 C-36.01173395 95.97782222 -34.0264477 96.86575576 -32.04101562 97.75341797 C-30.70430303 98.35340209 -29.36771419 98.95366198 -28.03125 99.55419922 C-26.0777684 100.43189656 -24.12413508 101.30924012 -22.16976929 102.18496704 C-18.31660681 103.91174515 -14.47135457 105.65491987 -10.63085938 107.40966797 C-7.10693821 109.01468684 -3.5706089 110.55569553 0.02148438 112.00341797 C5.21950908 114.14693331 10.31091372 116.48487085 15.39208984 118.88818359 C20.96313885 121.51288105 26.59600024 123.98283811 32.25683594 126.40722656 C37.16789373 128.52482732 37.16789373 128.52482732 38.27148438 129.62841797 C38.68144602 135.31663582 37.60441853 139.77456298 35.77148438 145.06591797 C35.36881348 146.24118042 35.36881348 146.24118042 34.95800781 147.44018555 C26.88263112 170.23084622 12.89954164 189.9011479 -4.66601562 206.37841797 C-5.19751221 206.88010498 -5.72900879 207.38179199 -6.27661133 207.89868164 C-9.24694095 210.59902405 -11.89168006 212.41306674 -15.72851562 213.62841797 C-15.72851562 214.28841797 -15.72851562 214.94841797 -15.72851562 215.62841797 C-17.88810469 217.1324722 -20.02503806 218.48838117 -22.29101562 219.81591797 C-23.3050647 220.41484863 -23.3050647 220.41484863 -24.33959961 221.02587891 C-53.28747282 237.83194175 -85.13928184 244.74598547 -118.35351562 240.31591797 C-119.25279785 240.19829102 -120.15208008 240.08066406 -121.07861328 239.95947266 C-126.88276494 239.11566403 -132.2332925 237.67344393 -137.72851562 235.62841797 C-137.18014742 231.38618057 -135.75451876 228.86240992 -133.22851562 225.44091797 C-130.77898983 222.15591329 -130.77898983 222.15591329 -128.72851562 218.62841797 C-128.06851563 218.62841797 -127.40851563 218.62841797 -126.72851562 218.62841797 C-126.06851563 217.30841797 -125.40851563 215.98841797 -124.72851562 214.62841797 C-123.95999268 214.69947754 -123.19146973 214.77053711 -122.3996582 214.84375 C-85.13728844 218.16990446 -52.722233 213.79785783 -23.03417969 189.22607422 C-12.15849792 180.02693021 -3.07920264 169.45808871 3.27148438 156.62841797 C4.07779297 155.03513672 4.07779297 155.03513672 4.90039062 153.40966797 C6.37094193 150.48903707 7.82702174 147.56201735 9.27148438 144.62841797 C6.93767656 142.29461016 4.89669493 141.44849192 1.87304688 140.12451172 C0.76372803 139.63563477 -0.34559082 139.14675781 -1.48852539 138.64306641 C-2.68147217 138.12260742 -3.87441895 137.60214844 -5.10351562 137.06591797 C-6.33674213 136.52380896 -7.56973204 135.9811614 -8.80249023 135.43798828 C-10.668335 134.61592882 -12.53431027 133.7941844 -14.40104675 132.97415161 C-19.7122408 130.64069917 -25.00397588 128.26594165 -30.29101562 125.87841797 C-31.0810498 125.52473145 -31.87108398 125.17104492 -32.68505859 124.80664062 C-36.74926749 122.98602977 -40.79316168 121.13153415 -44.81835938 119.22607422 C-45.64327881 118.84225586 -46.46819824 118.4584375 -47.31811523 118.06298828 C-48.88354915 117.33426001 -50.44339795 116.59336618 -51.99633789 115.83837891 C-55.90127233 113.95580771 -55.90127233 113.95580771 -60.08789062 114.22607422 C-62.54611881 116.32727403 -64.05844577 118.88473179 -65.72851562 121.62841797 C-65.15166016 121.85408447 -64.57480469 122.07975098 -63.98046875 122.31225586 C-56.99232293 125.0736783 -50.10414586 128.03647362 -43.22851562 131.06591797 C-42.16503906 131.530625 -41.1015625 131.99533203 -40.00585938 132.47412109 C-34.26791605 134.99811211 -28.61751795 137.63207528 -23.02832031 140.4699707 C-19.58830207 142.20276121 -16.09952764 143.82490425 -12.60351562 145.44091797 C-11.59804688 145.90788086 -11.59804688 145.90788086 -10.57226562 146.38427734 C-8.95828567 147.13362518 -7.34349284 147.88122184 -5.72851562 148.62841797 C-7.22282435 159.03254245 -15.72879552 167.33653564 -22.72851562 174.62841797 C-23.37691406 175.32837891 -24.0253125 176.02833984 -24.69335938 176.74951172 C-43.69446087 196.68318261 -70.08488187 205.50673509 -97.00878906 206.57177734 C-111.24868109 206.86833524 -111.24868109 206.86833524 -115.72851562 204.62841797 C-115.23402815 199.95247501 -113.09839412 196.93168088 -110.29101562 193.31591797 C-109.88302734 192.76613281 -109.47503906 192.21634766 -109.0546875 191.64990234 C-108.00077963 190.26589609 -106.86974242 188.94135228 -105.72851562 187.62841797 C-105.06851563 187.62841797 -104.40851563 187.62841797 -103.72851562 187.62841797 C-103.41914063 186.82404297 -103.10976563 186.01966797 -102.79101562 185.19091797 C-101.72851562 182.62841797 -101.72851562 182.62841797 -100.72851562 181.62841797 C-98.52191542 181.49239467 -96.31285468 181.39596649 -94.10351562 181.31591797 C-75.59631644 180.32791792 -55.66700466 173.32978961 -42.72851562 159.62841797 C-50.2570667 155.76391024 -57.77296568 152.11541047 -65.61914062 148.92919922 C-71.7466038 146.36582581 -77.72599043 143.46914289 -83.72851562 140.62841797 C-85.17760011 139.94453965 -86.62682193 139.26095227 -88.07617188 138.57763672 C-88.80408936 138.23442383 -89.53200684 137.89121094 -90.28198242 137.53759766 C-92.43760333 136.52268044 -94.59466861 135.51088703 -96.75195312 134.49951172 C-99.22376297 133.3404445 -101.68497963 132.1655069 -104.14257812 130.97607422 C-105.1196875 130.51072266 -106.09679687 130.04537109 -107.10351562 129.56591797 C-108.35261719 128.96070313 -108.35261719 128.96070313 -109.62695312 128.34326172 C-111.87650292 127.34169945 -111.87650292 127.34169945 -114.72851562 128.62841797 C-116.51331663 130.82304017 -118.16307168 133.00954552 -119.79101562 135.31591797 C-120.27852295 135.99364258 -120.76603027 136.67136719 -121.26831055 137.36962891 C-122.76267882 139.45056032 -124.24669927 141.53853557 -125.72851562 143.62841797 C-126.54586832 144.77580681 -127.36355421 145.92295841 -128.18164062 147.06982422 C-129.37206769 148.73898588 -130.56227091 150.40829548 -131.75073242 152.07885742 C-139.65106265 163.16021927 -147.79012466 174.07140777 -155.97851562 184.94091797 C-160.56214945 191.02702379 -165.0264748 197.18846637 -169.43554688 203.40185547 C-172.82649578 208.17344626 -176.27346538 212.90312866 -179.72851562 217.62841797 C-180.14746094 218.20205078 -180.56640625 218.77568359 -180.99804688 219.36669922 C-185.68062077 225.77656262 -190.37393139 232.1747415 -195.16601562 238.50341797 C-198.72515182 243.22782296 -202.1474527 248.03491287 -205.54101562 252.87841797 C-209.72265036 258.8428313 -213.98458122 264.73713145 -218.35351562 270.56591797 C-218.86245361 271.2462207 -219.3713916 271.92652344 -219.89575195 272.62744141 C-221.74680158 275.08374488 -223.55076445 277.4506668 -225.72851562 279.62841797 C-231.67816217 279.47967681 -236.59515628 276.34461296 -241.72851562 273.62841797 C-242.93493555 273.02043955 -244.142896 272.41549025 -245.35351562 271.81591797 C-246.13726562 271.42404297 -246.92101562 271.03216797 -247.72851562 270.62841797 C-247.11601683 267.3981038 -246.03007221 265.3670557 -244.06054688 262.74951172 C-243.50431641 262.00314453 -242.94808594 261.25677734 -242.375 260.48779297 C-241.76978516 259.68857422 -241.16457031 258.88935547 -240.54101562 258.06591797 C-239.25569317 256.34599008 -237.9705416 254.62593448 -236.68554688 252.90576172 C-236.02635254 252.02774902 -235.3671582 251.14973633 -234.68798828 250.24511719 C-231.67699817 246.22421113 -228.70355163 242.17595382 -225.72851562 238.12841797 C-224.57246024 236.55926415 -223.41620914 234.99025451 -222.25976562 233.42138672 C-219.82133013 230.11217882 -217.38399018 226.80216715 -214.94726562 223.49169922 C-214.32464844 222.64607422 -213.70203125 221.80044922 -213.06054688 220.92919922 C-211.88057171 219.32654639 -210.70086326 217.72369714 -209.52148438 216.12060547 C-208.98136719 215.38712891 -208.44125 214.65365234 -207.88476562 213.89794922 C-207.36543457 213.18912598 -206.84610352 212.48030273 -206.31103516 211.75 C-205.22371782 210.29230366 -204.11388463 208.85121716 -202.98583984 207.42480469 C-202.43428223 206.72242676 -201.88272461 206.02004883 -201.31445312 205.29638672 C-200.56494385 204.36282349 -200.56494385 204.36282349 -199.80029297 203.41040039 C-198.41529792 201.47457203 -198.41529792 201.47457203 -198.85351562 198.12841797 C-199.14226562 197.30341797 -199.43101562 196.47841797 -199.72851562 195.62841797 C-200.38851562 195.62841797 -201.04851562 195.62841797 -201.72851562 195.62841797 C-201.72851562 194.96841797 -201.72851562 194.30841797 -201.72851562 193.62841797 C-202.71851563 193.29841797 -203.70851562 192.96841797 -204.72851562 192.62841797 C-207.7107562 189.20538433 -210.18964833 185.38732869 -212.72851562 181.62841797 C-213.13585937 181.03013184 -213.54320312 180.4318457 -213.96289062 179.81542969 C-220.64524664 169.89759652 -225.60417161 159.83986495 -229.72851562 148.62841797 C-230.32792969 147.05640625 -230.32792969 147.05640625 -230.93945312 145.45263672 C-242.55422915 113.18451835 -239.97701481 74.2308662 -225.62548828 43.24707031 C-220.62126899 32.94088377 -215.09303844 22.46901971 -207.72851562 13.62841797 C-207.06851563 13.62841797 -206.40851563 13.62841797 -205.72851562 13.62841797 C-205.49519531 13.07927734 -205.261875 12.53013672 -205.02148438 11.96435547 C-200.85795636 4.44233204 -193.49831864 -2.15319221 -186.72851562 -7.37158203 C-186.06851563 -7.37158203 -185.40851563 -7.37158203 -184.72851562 -7.37158203 C-184.72851562 -8.03158203 -184.72851562 -8.69158203 -184.72851562 -9.37158203 C-183.07617188 -10.66845703 -183.07617188 -10.66845703 -180.79101562 -12.12158203 C-177.21360943 -14.40395405 -177.21360943 -14.40395405 -173.72460938 -16.81689453 C-121.34436717 -54.33385862 -44.98104142 -43.52354192 0 0 Z " fill="#F3B97E" transform="translate(360.728515625,131.37158203125)"/>
<path d="M0 0 C5.10733866 2.10650003 10.06933335 4.51151801 15 7 C15.27657085 10.90487687 14.88328552 12.76866823 12.4375 15.8203125 C11.89174316 16.51503662 11.34598633 17.20976074 10.78369141 17.92553711 C10.19507324 18.65135986 9.60645508 19.37718262 9 20.125 C7.7985543 21.64901093 6.59803195 23.17375022 5.3984375 24.69921875 C4.52010254 25.80595947 4.52010254 25.80595947 3.62402344 26.93505859 C1.55964175 29.55991432 -0.41683441 32.23244517 -2.375 34.9375 C-2.9834375 35.77796875 -3.591875 36.6184375 -4.21875 37.484375 C-5.48613309 39.27427568 -6.7341676 41.07794449 -7.96875 42.890625 C-8.91234375 44.27507812 -8.91234375 44.27507812 -9.875 45.6875 C-10.42929688 46.51636719 -10.98359375 47.34523438 -11.5546875 48.19921875 C-12.03164062 48.79347656 -12.50859375 49.38773437 -13 50 C-13.66 50 -14.32 50 -15 50 C-15.20109375 50.64710938 -15.4021875 51.29421875 -15.609375 51.9609375 C-17.58829475 56.28565538 -20.39333706 59.83965152 -23.25 63.625 C-24.52094593 65.32934312 -25.79177596 67.03377269 -27.0625 68.73828125 C-28.04089844 70.04466553 -28.04089844 70.04466553 -29.0390625 71.37744141 C-32.12807093 75.50868252 -35.19007967 79.65969066 -38.25 83.8125 C-38.83249512 84.60221191 -39.41499023 85.39192383 -40.01513672 86.20556641 C-44.32757505 92.06155772 -48.57231391 97.96275879 -52.78515625 103.890625 C-55.40023863 107.56188704 -58.05104367 111.20594132 -60.70703125 114.84765625 C-65.82496269 121.88372213 -70.90868612 128.9446605 -76 136 C-80.7317901 135.14060683 -84.83792147 133.61481736 -89.25 131.75 C-89.9821875 131.46253906 -90.714375 131.17507813 -91.46875 130.87890625 C-96.64455353 128.68398216 -96.64455353 128.68398216 -98.23828125 125.6171875 C-97.89738697 121.87293883 -96.33647709 120.256814 -93.9375 117.375 C-93.00285157 116.22195847 -92.07070541 115.06688564 -91.140625 113.91015625 C-90.63337891 113.28512207 -90.12613281 112.66008789 -89.60351562 112.01611328 C-86.69471159 108.35885023 -83.94850478 104.5818251 -81.1875 100.8125 C-80.29816772 99.60315796 -80.29816772 99.60315796 -79.39086914 98.36938477 C-74.80900515 92.13015872 -70.28084481 85.85298709 -65.76123047 79.56860352 C-61.68387943 73.91266231 -57.51540981 68.33052943 -53.31469727 62.76586914 C-49.65065295 57.90013992 -46.09272972 52.96724901 -42.57080078 47.99804688 C-39.99649487 44.37319322 -37.36784494 40.79780203 -34.6875 37.25 C-26.0634459 25.81740439 -17.7020288 14.18984243 -9.70703125 2.30859375 C-6.69396276 -1.76628835 -4.70933622 -1.15667907 0 0 Z " fill="#F3B97E" transform="translate(259,270)"/>
<path d="M0 0 C1.23511991 2.47023981 0.92120098 3.35093335 0.3125 6 C0.16425781 6.70125 0.01601562 7.4025 -0.13671875 8.125 C-1 10 -1 10 -2.984375 10.96484375 C-5.19237878 11.83184914 -5.19237878 11.83184914 -5.94140625 14.12890625 C-6.14636719 14.93199219 -6.35132813 15.73507812 -6.5625 16.5625 C-7.19140625 19.00390625 -7.19140625 19.00390625 -8 21 C-8.99 21.33 -9.98 21.66 -11 22 C-11.33 22.99 -11.66 23.98 -12 25 C-14.0625 26.6875 -14.0625 26.6875 -16 28 C-15.67 29.98 -15.34 31.96 -15 34 C-14.01 34 -13.02 34 -12 34 C-11.53980469 34.47050781 -11.07960937 34.94101562 -10.60546875 35.42578125 C-8.58056895 37.41126695 -7.07352576 37.66730674 -4.3125 38.1875 C-3.10013672 38.42533203 -3.10013672 38.42533203 -1.86328125 38.66796875 C-1.24839844 38.77753906 -0.63351563 38.88710938 0 39 C0.33 38.01 0.66 37.02 1 36 C1.65129797 34.65909241 2.31513275 33.32407669 3 32 C3.99 32 4.98 32 6 32 C4.6302836 35.99500618 2.74277578 38.80009492 0 42 C-4.72563276 41.29301557 -8.87885309 39.59751713 -13.25 37.75 C-14.34828125 37.31880859 -14.34828125 37.31880859 -15.46875 36.87890625 C-20.63939305 34.68617058 -20.63939305 34.68617058 -22.24609375 31.62890625 C-21.89016312 27.82666319 -20.23765239 26.1164825 -17.8125 23.1875 C-16.89303599 22.05329386 -15.97514171 20.91781389 -15.05859375 19.78125 C-14.56601074 19.17796875 -14.07342773 18.5746875 -13.56591797 17.953125 C-10.74435624 14.43387121 -8.06797492 10.80546556 -5.375 7.1875 C-4.34136377 5.80582652 -3.3075282 4.42430212 -2.2734375 3.04296875 C-1.52320313 2.03878906 -0.77296875 1.03460938 0 0 Z " fill="#D9AC84" transform="translate(183,364)"/>
<path d="M0 0 C2.3125 1.5625 2.3125 1.5625 4 3 C1.03 2.67 -1.94 2.34 -5 2 C-5.309375 3.8253125 -5.309375 3.8253125 -5.625 5.6875 C-6.59584828 9.57768227 -7.97807453 11.14438166 -11.27734375 13.51953125 C-15.93804405 17.5249857 -19.39764 23.47636333 -22 29 C-22.66 29 -23.32 29 -24 29 C-24.28875 29.61875 -24.5775 30.2375 -24.875 30.875 C-26 33 -26 33 -28 35 C-28.39764263 36.98821313 -28.73775349 38.98944339 -29 41 C-30.98 41 -32.96 41 -35 41 C-33.33401729 37.31167465 -31.05414294 34.13501455 -28.6875 30.875 C-28.25816162 30.27824463 -27.82882324 29.68148926 -27.38647461 29.06665039 C-24.78564064 25.45532771 -22.16924645 21.85529734 -19.5546875 18.25390625 C-18.97501221 17.4542041 -18.39533691 16.65450195 -17.7980957 15.83056641 C-16.66070439 14.26231354 -15.52129029 12.69552528 -14.37963867 11.13037109 C-12.21316728 8.14554341 -10.12538093 5.21194682 -8.24609375 2.03515625 C-5.96050548 -1.69773242 -3.88760041 -1.11074297 0 0 Z " fill="#C19670" transform="translate(244,229)"/>
<path d="M0 0 C1.921875 0.7109375 1.921875 0.7109375 4 2 C4.828125 4.1640625 4.828125 4.1640625 5.25 6.625 C5.39953125 7.44226563 5.5490625 8.25953125 5.703125 9.1015625 C5.80109375 9.72804687 5.8990625 10.35453125 6 11 C6.99 11 7.98 11 9 11 C9 11.99 9 12.98 9 14 C9.639375 14.598125 10.27875 15.19625 10.9375 15.8125 C13.47334819 18.50203596 13.67116942 20.38286362 14 24 C14.66 24 15.32 24 16 24 C16.67154933 25.28913487 17.33708859 26.58140204 18 27.875 C18.37125 28.59429687 18.7425 29.31359375 19.125 30.0546875 C20 32 20 32 20 34 C22.49552484 33.21869929 22.49552484 33.21869929 25 32 C25.33 31.01 25.66 30.02 26 29 C26.33 29.66 26.66 30.32 27 31 C26.67 31.66 26.34 32.32 26 33 C26.66 33 27.32 33 28 33 C28 32.34 28 31.68 28 31 C32.38461538 28 32.38461538 28 35 28 C35.33 27.34 35.66 26.68 36 26 C36.495 27.485 36.495 27.485 37 29 C37.66 29.33 38.32 29.66 39 30 C37.10435574 30.79211929 35.20847629 31.58367576 33.3125 32.375 C32.25675781 32.81585938 31.20101562 33.25671875 30.11328125 33.7109375 C28.57220703 34.34902344 28.57220703 34.34902344 27 35 C26.12730469 35.38414062 25.25460937 35.76828125 24.35546875 36.1640625 C22 37 22 37 18 37 C17.61070312 36.01902344 17.22140625 35.03804687 16.8203125 34.02734375 C11.99379364 22.25204865 5.71243352 12.11630891 -2 2 C-1.01 2 -0.02 2 1 2 C0.67 1.34 0.34 0.68 0 0 Z " fill="#B58C6C" transform="translate(353,155)"/>
<path d="M0 0 C3 2 3 2 4 3 C2.60831178 6.98854975 0.74657032 9.94583212 -1.875 13.25 C-2.55304688 14.12140625 -3.23109375 14.9928125 -3.9296875 15.890625 C-6.10553747 18.10752874 -6.92378671 18.90730807 -10 19 C-12.55078125 18.109375 -12.55078125 18.109375 -15.3125 16.75 C-16.27414063 16.28722656 -17.23578125 15.82445312 -18.2265625 15.34765625 C-19.14179687 14.90292969 -20.05703125 14.45820313 -21 14 C-23.32329515 12.97407757 -25.66021271 11.98791019 -28 11 C-25.39781274 8.28467417 -23.14100514 7.67143608 -19.5 7.4375 C-17.109375 7.5 -17.109375 7.5 -15 8 C-12.75 10.9375 -12.75 10.9375 -11 14 C-8.37233611 14.96219702 -8.37233611 14.96219702 -6 15 C-5.71125 13.72125 -5.4225 12.4425 -5.125 11.125 C-4.45897517 8.17546145 -4.19797403 7.19797403 -2 5 C-1.63837971 3.67405895 -1.30271961 2.34061543 -1 1 C-0.67 0.67 -0.34 0.34 0 0 Z " fill="#C79D77" transform="translate(142,392)"/>
<path d="M0 0 C-8.14824207 -0.77602305 -8.14824207 -0.77602305 -10.80395508 -1.47436523 C-18.10696199 -3.38235803 -25.29958274 -3.33110554 -32.8125 -3.3125 C-34.74706055 -3.33666992 -34.74706055 -3.33666992 -36.72070312 -3.36132812 C-43.97201399 -3.36499596 -50.30468966 -2.67331426 -57.27807617 -0.70141602 C-61.26003695 0.32470053 -65.15489367 0.55743764 -69.25 0.6875 C-70.00667969 0.72166016 -70.76335937 0.75582031 -71.54296875 0.79101562 C-73.36152868 0.87158474 -75.1807298 0.93748953 -77 1 C-63.33483313 -8.11011125 -12.81300165 -12.81300165 0 0 Z " fill="#95765A" transform="translate(300,98)"/>
<path d="M0 0 C0.66 0 1.32 0 2 0 C2.33 1.98 2.66 3.96 3 6 C3.99 6 4.98 6 6 6 C6 7.32 6 8.64 6 10 C6.99 10 7.98 10 9 10 C9.268125 10.61875 9.53625 11.2375 9.8125 11.875 C10.95556848 14.2995233 10.95556848 14.2995233 14 16 C14 16.66 14 17.32 14 18 C14.66 18.33 15.32 18.66 16 19 C15.34 19.66 14.68 20.32 14 21 C17.06890187 22.53445094 19.70094266 21.54984289 23 21 C23 20.34 23 19.68 23 19 C23.66 19 24.32 19 25 19 C25.33 18.34 25.66 17.68 26 17 C31.44927536 15.72463768 31.44927536 15.72463768 34 17 C34.33 16.34 34.66 15.68 35 15 C34.71386719 16.89355469 34.71386719 16.89355469 34 19 C31.3861707 20.300947 28.9883787 21.30506651 26.25 22.25 C25.53328125 22.518125 24.8165625 22.78625 24.078125 23.0625 C16.7037689 25.71943712 16.7037689 25.71943712 13 25 C10.16499937 22.15813497 8.58846847 18.44447737 6.8125 14.875 C6.28269531 13.82054687 5.75289063 12.76609375 5.20703125 11.6796875 C4 9 4 9 4 7 C3.34 7 2.68 7 2 7 C1.01 5.02 0.02 3.04 -1 1 C-0.67 0.67 -0.34 0.34 0 0 Z " fill="#C9A275" transform="translate(326,179)"/>
<path d="M0 0 C0.33 0 0.66 0 1 0 C0.67 2.97 0.34 5.94 0 9 C0.66 9.33 1.32 9.66 2 10 C1.34 10 0.68 10 0 10 C0.33 10.99 0.66 11.98 1 13 C0.34 13 -0.32 13 -1 13 C-0.67 24.88 -0.34 36.76 0 49 C-0.33 49 -0.66 49 -1 49 C-3.73022248 32.84618366 -5.0265588 18.26775353 -2 2 C-1.34 2 -0.68 2 0 2 C0 1.34 0 0.68 0 0 Z " fill="#D7AB80" transform="translate(162,210)"/>
<path d="M0 0 C6.7904162 -0.73808872 11.14722978 1.76480038 17 5 C18.33015668 5.67298249 19.66238951 6.34195714 21 7 C21.40214229 13.16618181 19.96818336 18.17745757 18 24 C14.57886126 17.61387435 14.57886126 17.61387435 15.55859375 13.859375 C15.99365234 12.81523437 15.99365234 12.81523437 16.4375 11.75 C16.86869141 10.69039063 16.86869141 10.69039063 17.30859375 9.609375 C17.53675781 9.07828125 17.76492188 8.5471875 18 8 C17.37351562 7.96261719 16.74703125 7.92523438 16.1015625 7.88671875 C15.28429687 7.82097656 14.46703125 7.75523437 13.625 7.6875 C12.81289063 7.62949219 12.00078125 7.57148438 11.1640625 7.51171875 C9 7 9 7 7 4 C4.43717258 3.27034634 4.43717258 3.27034634 2 3 C2 2.34 2 1.68 2 1 C1.34 0.67 0.68 0.34 0 0 Z " fill="#E8B990" transform="translate(378,254)"/>
<path d="M0 0 C1.125 3.75 1.125 3.75 0 6 C-2.5625 6.625 -2.5625 6.625 -5 7 C-5 8.32 -5 9.64 -5 11 C-6.65 11.33 -8.3 11.66 -10 12 C-10 12.99 -10 13.98 -10 15 C-12.17343711 18.04281196 -13.83786277 19.75337851 -17.55859375 20.54296875 C-20.04490776 20.78631012 -22.5028213 20.9466622 -25 21 C-22.17226749 18.02101669 -19.24386426 15.65499017 -15.875 13.3125 C-10.20494382 9.2602795 -5.08081884 4.76120117 0 0 Z " fill="#AD886C" transform="translate(347,312)"/>
<path d="M0 0 C0.33 0.66 0.66 1.32 1 2 C0.0625 4.125 0.0625 4.125 -1 6 C-0.34 6.33 0.32 6.66 1 7 C-1.77280706 10.08089673 -4.06326356 11.68775452 -8 13 C-7.87625 13.721875 -7.7525 14.44375 -7.625 15.1875 C-8.06001831 18.45013736 -8.55561151 18.8041996 -11 20.8125 C-11.99 21.534375 -12.98 22.25625 -14 23 C-14.75 21.4375 -14.75 21.4375 -15 19 C-13.86915563 16.49713591 -12.47860484 14.32992278 -11 12 C-10.34 12 -9.68 12 -9 12 C-8.74476563 11.42765625 -8.48953125 10.8553125 -8.2265625 10.265625 C-6.86912841 7.75826267 -5.28025896 5.8669544 -3.375 3.75 C-2.74335938 3.04359375 -2.11171875 2.3371875 -1.4609375 1.609375 C-0.97882813 1.07828125 -0.49671875 0.5471875 0 0 Z " fill="#DDAA78" transform="translate(189,158)"/>
<path d="M0 0 C-0.93972656 0.41572266 -0.93972656 0.41572266 -1.8984375 0.83984375 C-2.71570313 1.20207031 -3.53296875 1.56429688 -4.375 1.9375 C-5.18710937 2.29714844 -5.99921875 2.65679687 -6.8359375 3.02734375 C-8.23683785 3.6569903 -9.62625284 4.31312642 -11 5 C-11 4.34 -11 3.68 -11 3 C-13.31 3 -15.62 3 -18 3 C-18.2475 3.763125 -18.495 4.52625 -18.75 5.3125 C-20.1255271 8.26988327 -21.15451051 9.44791483 -24 11 C-24.99 10.67 -25.98 10.34 -27 10 C-25.625 8 -25.625 8 -24 6 C-23.34 6 -22.68 6 -22 6 C-21.690625 5.195625 -21.38125 4.39125 -21.0625 3.5625 C-20 1 -20 1 -19 0 C-16.55571462 -0.26536271 -14.13903274 -0.46905592 -11.6875 -0.625 C-11.01009766 -0.6765625 -10.33269531 -0.728125 -9.63476562 -0.78125 C-6.23132333 -1.00748077 -3.25055604 -1.11972881 0 0 Z " fill="#B48B69" transform="translate(279,313)"/>
<path d="M0 0 C0.33 1.32 0.66 2.64 1 4 C0.34 4 -0.32 4 -1 4 C-1 4.99 -1 5.98 -1 7 C-1.66 7 -2.32 7 -3 7 C-2.95875 7.9075 -2.9175 8.815 -2.875 9.75 C-2.99531556 12.8782046 -3.3914708 14.38614006 -5 17 C-5.66 17 -6.32 17 -7 17 C-7 17.99 -7 18.98 -7 20 C-7.66 20 -8.32 20 -9 20 C-8.938125 21.093125 -8.87625 22.18625 -8.8125 23.3125 C-9 27 -9 27 -10.375 28.9375 C-12 30 -12 30 -14 30 C-12.12449479 22.77593863 -9.45028351 16.47501408 -5.875 9.9375 C-5.41996094 9.08478516 -4.96492187 8.23207031 -4.49609375 7.35351562 C-1.18128765 1.18128765 -1.18128765 1.18128765 0 0 Z " fill="#AE8B68" transform="translate(145,157)"/>
<path d="M0 0 C1.921875 0.7109375 1.921875 0.7109375 4 2 C4.828125 4.1640625 4.828125 4.1640625 5.25 6.625 C5.39953125 7.44226563 5.5490625 8.25953125 5.703125 9.1015625 C5.80109375 9.72804687 5.8990625 10.35453125 6 11 C6.99 11 7.98 11 9 11 C9 11.99 9 12.98 9 14 C9.639375 14.598125 10.27875 15.19625 10.9375 15.8125 C13.48222307 18.51144872 13.5199253 20.39943976 14 24 C14.66 24.33 15.32 24.66 16 25 C17.61287128 28.81995829 18.20681069 31.05432816 17 35 C16.68289063 34.16339844 16.36578125 33.32679688 16.0390625 32.46484375 C11.53571949 21.23136658 5.3410906 11.61276358 -2 2 C-1.01 2 -0.02 2 1 2 C0.67 1.34 0.34 0.68 0 0 Z " fill="#A37D62" transform="translate(353,155)"/>
<path d="M0 0 C5.70709064 0.46588495 9.15939723 1.93757784 14 5 C13.01 5.495 13.01 5.495 12 6 C9.90625 5.22265625 9.90625 5.22265625 7.5 4.0625 C4.37987863 2.47148572 4.37987863 2.47148572 1 2 C0.18501438 3.6029053 -0.62689927 5.20737278 -1.4375 6.8125 C-1.88996094 7.70582031 -2.34242188 8.59914062 -2.80859375 9.51953125 C-4.0831605 12.03999478 -4.0831605 12.03999478 -5 15 C-6.375 16.6875 -6.375 16.6875 -8 18 C-8.99 18 -9.98 18 -11 18 C-11.103125 18.639375 -11.20625 19.27875 -11.3125 19.9375 C-11.539375 20.618125 -11.76625 21.29875 -12 22 C-12.99 22.33 -13.98 22.66 -15 23 C-13.54997977 18.89160936 -11.6020866 15.49655387 -9 12 C-8.34 12 -7.68 12 -7 12 C-6.72414063 11.42765625 -6.44828125 10.8553125 -6.1640625 10.265625 C-5.00532152 8.01035733 -3.73124294 5.89143622 -2.375 3.75 C-1.92898438 3.04359375 -1.48296875 2.3371875 -1.0234375 1.609375 C-0.68570312 1.07828125 -0.34796875 0.5471875 0 0 Z " fill="#947255" transform="translate(292,214)"/>
<path d="M0 0 C0.99 0 1.98 0 3 0 C1.79352268 2.48796878 0.5011092 4.90033371 -0.83984375 7.3203125 C-4.74571239 14.37514876 -8.20714338 21.06287436 -10 29 C-10.33 29 -10.66 29 -11 29 C-11.02698189 27.37509046 -11.04638757 25.75005367 -11.0625 24.125 C-11.07410156 23.22007812 -11.08570313 22.31515625 -11.09765625 21.3828125 C-11 19 -11 19 -10 17 C-9.34 17 -8.68 17 -8 17 C-8.33 14.69 -8.66 12.38 -9 10 C-8.360625 9.87625 -7.72125 9.7525 -7.0625 9.625 C-6.381875 9.41875 -5.70125 9.2125 -5 9 C-4.67 8.34 -4.34 7.68 -4 7 C-3.34 7 -2.68 7 -2 7 C-2 5.68 -2 4.36 -2 3 C-1.34 3 -0.68 3 0 3 C0 2.01 0 1.02 0 0 Z " fill="#BA946B" transform="translate(195,184)"/>
<path d="M0 0 C3.90541659 3.65657589 6.83498055 7.42303565 9.6875 11.9375 C10.07744141 12.53240234 10.46738281 13.12730469 10.86914062 13.74023438 C13.19679042 17.38091739 14.80320278 20.80800972 16 25 C14.35 24.34 12.7 23.68 11 23 C11 21.02 11 19.04 11 17 C10.01 17 9.02 17 8 17 C7.979375 16.29875 7.95875 15.5975 7.9375 14.875 C6.70572325 11.0975513 4.61872583 9.75438342 1.49609375 7.4296875 C1.00238281 6.95789063 0.50867188 6.48609375 0 6 C0 5.01 0 4.02 0 3 C-0.99 2.67 -1.98 2.34 -3 2 C-2.01 2 -1.02 2 0 2 C0 1.34 0 0.68 0 0 Z " fill="#B1886A" transform="translate(373,147)"/>
<path d="M0 0 C0.76699219 0.20496094 1.53398437 0.40992188 2.32421875 0.62109375 C-4.78967647 12.32724409 -4.78967647 12.32724409 -9.67578125 16.62109375 C-9.39427038 15.30637807 -9.10024786 13.99433608 -8.80078125 12.68359375 C-8.63835937 11.95269531 -8.4759375 11.22179687 -8.30859375 10.46875 C-7.67578125 8.62109375 -7.67578125 8.62109375 -5.67578125 7.62109375 C-6.33578125 6.30109375 -6.99578125 4.98109375 -7.67578125 3.62109375 C-3.3344351 -0.47217548 -3.3344351 -0.47217548 0 0 Z " fill="#D7A370" transform="translate(264.67578125,289.37890625)"/>
<path d="M0 0 C0.99 0 1.98 0 3 0 C1.6302836 3.99500618 -0.25722422 6.80009492 -3 10 C-7.40958108 9.33392561 -11.26572186 7.73375271 -15.3125 5.9375 C-15.95767578 5.65583984 -16.60285156 5.37417969 -17.26757812 5.08398438 C-18.84698358 4.3937257 -20.42376493 3.69746802 -22 3 C-22 2.67 -22 2.34 -22 2 C-18.6875 1.8125 -18.6875 1.8125 -15 2 C-14 3 -13 4 -12 5 C-9.73606029 5.78356902 -9.73606029 5.78356902 -7.3125 6.1875 C-6.50425781 6.34605469 -5.69601563 6.50460937 -4.86328125 6.66796875 C-4.24839844 6.77753906 -3.63351563 6.88710938 -3 7 C-2.67 6.01 -2.34 5.02 -2 4 C-1.34870203 2.65909241 -0.68486725 1.32407669 0 0 Z " fill="#98705C" transform="translate(186,396)"/>
<path d="M0 0 C0.85078125 0.00322266 1.7015625 0.00644531 2.578125 0.00976562 C3.46757812 0.01814453 4.35703125 0.02652344 5.2734375 0.03515625 C6.170625 0.03966797 7.0678125 0.04417969 7.9921875 0.04882812 C10.21100398 0.06063034 12.42968768 0.0770947 14.6484375 0.09765625 C14.6484375 0.42765625 14.6484375 0.75765625 14.6484375 1.09765625 C1.51750749 3.42220445 -11.01895479 4.50487391 -24.3515625 4.09765625 C-24.3515625 3.76765625 -24.3515625 3.43765625 -24.3515625 3.09765625 C-23.07539063 2.96488281 -21.79921875 2.83210938 -20.484375 2.6953125 C-18.81508254 2.5171296 -17.14581286 2.33873311 -15.4765625 2.16015625 C-14.63480469 2.07314453 -13.79304688 1.98613281 -12.92578125 1.89648438 C-11.71728516 1.7659668 -11.71728516 1.7659668 -10.484375 1.6328125 C-9.74074707 1.55426025 -8.99711914 1.47570801 -8.23095703 1.39477539 C-5.20883379 0.91699883 -3.18988044 -0.02126587 0 0 Z " fill="#826348" transform="translate(278.3515625,368.90234375)"/>
<path d="M0 0 C0.33 0.66 0.66 1.32 1 2 C1.66 2 2.32 2 3 2 C4.125 5.75 4.125 5.75 3 8 C5.97 8.495 5.97 8.495 9 9 C8.67 9.66 8.34 10.32 8 11 C6.3745692 10.85904936 4.74965949 10.71207913 3.125 10.5625 C2.22007812 10.48128906 1.31515625 10.40007812 0.3828125 10.31640625 C-2 10 -2 10 -4 9 C-3.46930939 5.17902761 -2.50298434 2.93828597 0 0 Z " fill="#F3BF8E" transform="translate(227,358)"/>
<path d="M0 0 C-2.64738916 1.4606285 -3.89448334 2 -7 2 C-7 2.66 -7 3.32 -7 4 C-8.27875 4.12375 -9.5575 4.2475 -10.875 4.375 C-14.34790936 4.69042399 -14.34790936 4.69042399 -17 7 C-19.24658203 7.22705078 -19.24658203 7.22705078 -22.0078125 7.1953125 C-22.99394531 7.18886719 -23.98007812 7.18242187 -24.99609375 7.17578125 C-26.54490234 7.15064453 -26.54490234 7.15064453 -28.125 7.125 C-29.16527344 7.11597656 -30.20554687 7.10695313 -31.27734375 7.09765625 C-33.85179092 7.07403747 -36.42578212 7.04110149 -39 7 C-39 6.67 -39 6.34 -39 6 C-37.13021484 5.87044922 -37.13021484 5.87044922 -35.22265625 5.73828125 C-25.49510683 4.9671833 -16.48607905 3.68552931 -7.20727539 0.58911133 C-2.16956931 -1.08478465 -2.16956931 -1.08478465 0 0 Z " fill="#97775A" transform="translate(305,342)"/>
<path d="M0 0 C2.97 0.495 2.97 0.495 6 1 C1.70061382 6.97679821 -2.86875224 12.70954884 -8 18 C-8.33 18 -8.66 18 -9 18 C-8.67 15.69 -8.34 13.38 -8 11 C-6.02 11.495 -6.02 11.495 -4 12 C-3.87625 11.46375 -3.7525 10.9275 -3.625 10.375 C-2.6873767 6.81203144 -1.65031313 3.30062625 0 0 Z " fill="#C29873" transform="translate(370,314)"/>
<path d="M0 0 C0.66 0.33 1.32 0.66 2 1 C-0.25595256 4.32456166 -2.67607878 6.73000502 -6 9 C-7.32 9 -8.64 9 -10 9 C-10 9.99 -10 10.98 -10 12 C-12.64 12.33 -15.28 12.66 -18 13 C-13.0522074 7.57338876 -6.83146561 2.81635474 0 0 Z " fill="#AC8868" transform="translate(198,108)"/>
<path d="M0 0 C0.33 0.66 0.66 1.32 1 2 C0.06553465 4.03144641 -0.93224776 6.03533587 -2 8 C-2.66 8 -3.32 8 -4 8 C-4 8.66 -4 9.32 -4 10 C5.9 10.33 15.8 10.66 26 11 C26 11.33 26 11.66 26 12 C0.33333333 14.16666667 0.33333333 14.16666667 -6 11 C-5.55530671 5.96014269 -3.28656638 3.62365012 0 0 Z " fill="#705742" transform="translate(251,325)"/>
<path d="M0 0 C0.78665039 0.03915527 1.57330078 0.07831055 2.38378906 0.11865234 C8.00620587 0.44060293 8.00620587 0.44060293 10.25 1.5625 C10.25 2.2225 10.25 2.8825 10.25 3.5625 C9.59515625 3.50191406 8.9403125 3.44132812 8.265625 3.37890625 C6.32056667 3.20033451 4.37522558 3.02482925 2.4296875 2.8515625 C0.43383942 2.67012177 -1.5611689 2.47889763 -3.5546875 2.2734375 C-12.29327349 1.42620617 -20.98115458 1.46899335 -29.75 1.5625 C-29.75 1.2325 -29.75 0.9025 -29.75 0.5625 C-19.9509662 -1.28582075 -9.90998755 -0.5139541 0 0 Z " fill="#8B6E53" transform="translate(279.75,115.4375)"/>
<path d="M0 0 C0 0.33 0 0.66 0 1 C-1.02154175 1.029729 -1.02154175 1.029729 -2.0637207 1.06005859 C-5.14703917 1.15526983 -8.22967649 1.26496466 -11.3125 1.375 C-12.9202832 1.42140625 -12.9202832 1.42140625 -14.56054688 1.46875 C-16.10258789 1.52675781 -16.10258789 1.52675781 -17.67578125 1.5859375 C-19.0975769 1.63306885 -19.0975769 1.63306885 -20.5480957 1.68115234 C-23.2530269 1.8489051 -23.2530269 1.8489051 -26 4 C-29.35546875 4.1953125 -29.35546875 4.1953125 -33.1875 4.125 C-34.45980469 4.10695312 -35.73210937 4.08890625 -37.04296875 4.0703125 C-38.50669922 4.03550781 -38.50669922 4.03550781 -40 4 C-32.10297231 -3.89702769 -10.24282755 -0.15564788 0 0 Z " fill="#957559" transform="translate(276,128)"/>
<path d="M0 0 C-0.66 0 -1.32 0 -2 0 C-1.67 0.99 -1.34 1.98 -1 3 C-3 5 -3 5 -6 5.4375 C-6.99 5.623125 -7.98 5.80875 -9 6 C-9.99 7.485 -9.99 7.485 -11 9 C-11.99 9.33 -12.98 9.66 -14 10 C-14.33 9.34 -14.66 8.68 -15 8 C-15.66 7.67 -16.32 7.34 -17 7 C-14.73595458 5.63319847 -12.46498979 4.28155555 -10.1875 2.9375 C-9.54490234 2.54755859 -8.90230469 2.15761719 -8.24023438 1.75585938 C-3.33984375 -1.11328125 -3.33984375 -1.11328125 0 0 Z " fill="#C2996E" transform="translate(222,138)"/>
<path d="M0 0 C1.42299453 2.84598906 0.71334186 5.05422645 -0.0625 8.0390625 C-1.70969562 11.48444668 -4.66326511 12.33163255 -8 14 C-9.2516467 16.08334635 -9.2516467 16.08334635 -10 18 C-10.99 18.33 -11.98 18.66 -13 19 C-11.44301719 14.09456622 -8.56676327 10.62049764 -5.375 6.6875 C-4.859375 6.04232422 -4.34375 5.39714844 -3.8125 4.73242188 C-2.54705818 3.1506196 -1.27425738 1.57470937 0 0 Z " fill="#AA8664" transform="translate(183,364)"/>
<path d="M0 0 C1.26645936 3.79937808 0.59001393 5.38212756 -0.83984375 9 C-2.49354224 11.8508203 -4.60791202 13.28787707 -7.37890625 14.9921875 C-9.17538751 16.02393159 -9.17538751 16.02393159 -11 18 C-10.40149598 15.01034358 -9.51087951 13.00221502 -7.71484375 10.546875 C-7.26689453 9.928125 -6.81894531 9.309375 -6.35742188 8.671875 C-5.88884766 8.03765625 -5.42027344 7.4034375 -4.9375 6.75 C-4.46505859 6.1003125 -3.99261719 5.450625 -3.50585938 4.78125 C-2.34276471 3.18346338 -1.17211399 1.59118197 0 0 Z " fill="#93765F" transform="translate(124,384)"/>
<path d="M0 0 C0.66 0.33 1.32 0.66 2 1 C1.67 1.66 1.34 2.32 1 3 C1.66 3 2.32 3 3 3 C3 4.32 3 5.64 3 7 C8.94 7.33 14.88 7.66 21 8 C21 8.33 21 8.66 21 9 C17.3958502 9.02900455 13.79173038 9.04680018 10.1875 9.0625 C8.65125977 9.07506836 8.65125977 9.07506836 7.08398438 9.08789062 C5.60961914 9.09272461 5.60961914 9.09272461 4.10546875 9.09765625 C2.74651489 9.10551147 2.74651489 9.10551147 1.36010742 9.11352539 C-1 9 -1 9 -4 8 C-4 7.34 -4 6.68 -4 6 C-3 5 -2 4 -1 3 C-0.67 2.01 -0.34 1.02 0 0 Z " fill="#F8C490" transform="translate(251,327)"/>
<path d="M0 0 C7.7802874 1.15327269 14.98610003 3.39483231 22 7 C22.33 7.66 22.66 8.32 23 9 C17.56181564 9.71555057 14.13487893 7.79109665 9.48046875 5.3125 C6.38756217 3.67593841 3.23229818 2.33507968 0 1 C0 0.67 0 0.34 0 0 Z " fill="#A08369" transform="translate(300,98)"/>
<path d="M0 0 C0.33 0 0.66 0 1 0 C1.50641298 4.35344562 2.00398642 8.70785825 2.5 13.0625 C2.64308594 14.29162109 2.78617188 15.52074219 2.93359375 16.78710938 C3.06894531 17.98271484 3.20429688 19.17832031 3.34375 20.41015625 C3.46943359 21.50465088 3.59511719 22.59914551 3.72460938 23.72680664 C4.01398305 27.16619742 4.04582048 30.5501 4 34 C3.67 34 3.34 34 3 34 C1.06805496 22.56932516 -0.51968621 11.62557295 0 0 Z " fill="#826547" transform="translate(158,225)"/>
<path d="M0 0 C0.33 0.99 0.66 1.98 1 3 C0.03900391 3.38091797 0.03900391 3.38091797 -0.94140625 3.76953125 C-1.80636719 4.11371094 -2.67132813 4.45789063 -3.5625 4.8125 C-4.47515625 5.17472656 -5.3878125 5.53695312 -6.328125 5.91015625 C-8.52107273 6.80464809 -10.66384777 7.75648603 -12.8125 8.75 C-15.85107853 9.94159942 -17.78466809 10.2923029 -21 10 C-20.01 9.67 -19.02 9.34 -18 9 C-18 8.34 -18 7.68 -18 7 C-14.535 6.505 -14.535 6.505 -11 6 C-11 5.34 -11 4.68 -11 4 C-10.34 4 -9.68 4 -9 4 C-8.67 3.34 -8.34 2.68 -8 2 C-2.55072464 0.72463768 -2.55072464 0.72463768 0 2 C0 1.34 0 0.68 0 0 Z " fill="#A27D5D" transform="translate(360,194)"/>
<path d="M0 0 C1.65 0 3.3 0 5 0 C2.03352255 3.19249477 -1.04963636 5.4592987 -4.75 7.75 C-5.73484375 8.36359375 -6.7196875 8.9771875 -7.734375 9.609375 C-8.48203125 10.06828125 -9.2296875 10.5271875 -10 11 C-10.625 9.125 -10.625 9.125 -11 7 C-10.34 6.34 -9.68 5.68 -9 5 C-8.01 5 -7.02 5 -6 5 C-6 4.34 -6 3.68 -6 3 C-4.68 3.33 -3.36 3.66 -2 4 C-2 3.34 -2 2.68 -2 2 C-1.34 2 -0.68 2 0 2 C0 1.34 0 0.68 0 0 Z " fill="#BE9871" transform="translate(202,130)"/>
<path d="M0 0 C0 0.66 0 1.32 0 2 C0.66 2.33 1.32 2.66 2 3 C-11.86 2.01 -11.86 2.01 -26 1 C-26 0.67 -26 0.34 -26 0 C-3.34328358 -1.67164179 -3.34328358 -1.67164179 0 0 Z " fill="#946D4E" transform="translate(282,151)"/>
<path d="M0 0 C1.32 0 2.64 0 4 0 C4.12375 0.804375 4.2475 1.60875 4.375 2.4375 C4.684375 3.7059375 4.684375 3.7059375 5 5 C5.66 5.33 6.32 5.66 7 6 C3.55384615 10.8 3.55384615 10.8 0.75 11.8125 C0.1725 11.874375 -0.405 11.93625 -1 12 C-0.21302675 8.58978257 0.87119943 5.31114834 2 2 C1.34 1.34 0.68 0.68 0 0 Z " fill="#CC9D76" transform="translate(368,273)"/>
<path d="M0 0 C0.99 0.33 1.98 0.66 3 1 C2.67 1.99 2.34 2.98 2 4 C2.99 3.67 3.98 3.34 5 3 C6.56118428 2.93259135 8.1250252 2.91485544 9.6875 2.9375 C10.89986328 2.95103516 10.89986328 2.95103516 12.13671875 2.96484375 C13.05904297 2.98224609 13.05904297 2.98224609 14 3 C14 3.33 14 3.66 14 4 C12.90300781 4.20496094 11.80601562 4.40992187 10.67578125 4.62109375 C9.22135113 4.89321293 7.76692422 5.16534925 6.3125 5.4375 C5.59126953 5.57220703 4.87003906 5.70691406 4.12695312 5.84570312 C0.41311202 6.54098845 -3.29716254 7.24774702 -7 8 C-7 7.01 -7 6.02 -7 5 C-6.401875 4.731875 -5.80375 4.46375 -5.1875 4.1875 C-3.02775192 3.01506533 -1.64209744 1.80630718 0 0 Z " fill="#A57C5C" transform="translate(235,114)"/>
<path d="M0 0 C0.73828125 1.61328125 0.73828125 1.61328125 1 4 C-0.58203125 6.98046875 -0.58203125 6.98046875 -2.8125 10.1875 C-3.90498047 11.78658203 -3.90498047 11.78658203 -5.01953125 13.41796875 C-7 16 -7 16 -9 17 C-9 15.68 -9 14.36 -9 13 C-8.34 13 -7.68 13 -7 13 C-7 12.01 -7 11.02 -7 10 C-6.34 10 -5.68 10 -5 10 C-4.814375 8.88625 -4.814375 8.88625 -4.625 7.75 C-4.04513299 5.19858515 -3.26291261 3.2732427 -2 1 C-1.67 1.66 -1.34 2.32 -1 3 C-0.67 2.01 -0.34 1.02 0 0 Z " fill="#AA8564" transform="translate(354,280)"/>
<path d="M0 0 C0.99 0.33 1.98 0.66 3 1 C3.40214229 7.16618181 1.96818336 12.17745757 0 18 C-2.66775457 12.7410248 -2.66775457 12.7410248 -3 10 C-2.0625 7.25 -2.0625 7.25 -1 5 C-0.34 5.33 0.32 5.66 1 6 C0.67 4.02 0.34 2.04 0 0 Z " fill="#9F7A5B" transform="translate(396,260)"/>
<path d="M0 0 C4.29 0 8.58 0 13 0 C13.66 1.65 14.32 3.3 15 5 C15.99 5.33 16.98 5.66 18 6 C16 7 16 7 12.3046875 5.78515625 C10.82514342 5.21866415 9.34867819 4.64408111 7.875 4.0625 C7.12089844 3.77181641 6.36679687 3.48113281 5.58984375 3.18164062 C3.72391398 2.46125002 1.8616042 1.73149596 0 1 C0 0.67 0 0.34 0 0 Z " fill="#B08A68" transform="translate(297,121)"/>
<path d="M0 0 C5.96652354 1.57013777 10.82909025 4.75029782 16 8 C12.30581799 9.231394 9.7943739 8.64432764 6 8 C5.67 6.35 5.34 4.7 5 3 C3.68 3 2.36 3 1 3 C0.67 2.01 0.34 1.02 0 0 Z " fill="#A58465" transform="translate(326,108)"/>
<path d="M0 0 C-2.35790395 3.06527514 -3.7104105 4.72042487 -7.55859375 5.5546875 C-10.0440291 5.78736655 -12.50459714 5.94670013 -15 6 C-11.29673879 1.70421699 -5.8141716 -2.5582355 0 0 Z " fill="#CA9D72" transform="translate(337,327)"/>
<path d="M0 0 C0 4.48009779 -0.31166536 6.20004353 -3.3125 9.6875 C-5.75340442 11.78781311 -6.88034254 12.65337139 -10 13 C-8.5 10 -8.5 10 -7 7 C-6.34 7 -5.68 7 -5 7 C-4.731875 6.401875 -4.46375 5.80375 -4.1875 5.1875 C-3.01506533 3.02775192 -1.80630718 1.64209744 0 0 Z " fill="#B28C68" transform="translate(160,138)"/>
<path d="M0 0 C1.67381019 0.29537827 3.33911955 0.63893903 5 1 C6.5778125 1.3403125 6.5778125 1.3403125 8.1875 1.6875 C11 3 11 3 12.375 6.125 C12.58125 7.07375 12.7875 8.0225 13 9 C8.33138019 7.39516194 3.90741833 5.02509806 0 2 C0 1.34 0 0.68 0 0 Z " fill="#B49069" transform="translate(320,130)"/>
<path d="M0 0 C0 0.66 0 1.32 0 2 C-0.92683594 2.26554687 -1.85367188 2.53109375 -2.80859375 2.8046875 C-4.00613281 3.15789062 -5.20367187 3.51109375 -6.4375 3.875 C-7.63246094 4.22304687 -8.82742187 4.57109375 -10.05859375 4.9296875 C-13.11691031 5.6608291 -13.11691031 5.6608291 -14 8 C-16.06640625 8.4140625 -16.06640625 8.4140625 -18.5625 8.625 C-19.80193359 8.73714844 -19.80193359 8.73714844 -21.06640625 8.8515625 C-22.02353516 8.92503906 -22.02353516 8.92503906 -23 9 C-19.53635252 6.05766681 -15.68349872 4.45746794 -11.5 2.8125 C-10.83613281 2.53986328 -10.17226562 2.26722656 -9.48828125 1.98632812 C-6.06085456 0.6215145 -3.74379429 0 0 0 Z " fill="#8A6D56" transform="translate(223,99)"/>
<path d="M0 0 C-0.185625 0.763125 -0.37125 1.52625 -0.5625 2.3125 C-1.22819173 5.08967375 -1.22819173 5.08967375 0 8 C-3 8 -3 8 -6 6 C-6.99 5.67 -7.98 5.34 -9 5 C-3.375 0 -3.375 0 0 0 Z " fill="#F5BC82" transform="translate(200,151)"/>
<path d="M0 0 C0.33 0.66 0.66 1.32 1 2 C0.14888105 4.18153695 -0.8060038 6.32315085 -1.8125 8.4375 C-2.62654297 10.16806641 -2.62654297 10.16806641 -3.45703125 11.93359375 C-5 15 -5 15 -7 18 C-7 15.69 -7 13.38 -7 11 C-6.34 11 -5.68 11 -5 11 C-4.9175 9.9275 -4.835 8.855 -4.75 7.75 C-3.94523098 3.7261549 -3.12270126 2.51830747 0 0 Z " fill="#AB8565" transform="translate(161,175)"/>
<path d="M0 0 C1.32 0 2.64 0 4 0 C2.59023295 3.03852705 0.91129772 5.5939595 -1.125 8.25 C-1.66382813 8.95640625 -2.20265625 9.6628125 -2.7578125 10.390625 C-3.16773438 10.92171875 -3.57765625 11.4528125 -4 12 C-4.33 10.68 -4.66 9.36 -5 8 C-4.34 7.67 -3.68 7.34 -3 7 C-2.34444881 4.47266765 -2.34444881 4.47266765 -2 2 C-1.34 2 -0.68 2 0 2 C0 1.34 0 0.68 0 0 Z " fill="#AE8969" transform="translate(194,384)"/>
<path d="M0 0 C-0.721875 0.37125 -1.44375 0.7425 -2.1875 1.125 C-5.57954762 3.38636508 -7.50498266 5.79212057 -10 9 C-10.33 8.34 -10.66 7.68 -11 7 C-12.65 7 -14.3 7 -16 7 C-13 5 -13 5 -10 4 C-9.319375 3.2884375 -9.319375 3.2884375 -8.625 2.5625 C-6.07854579 0.11398634 -3.32963048 -1.66481524 0 0 Z " fill="#CBA079" transform="translate(314,338)"/>
<path d="M0 0 C5.23272633 1.63958758 10.15196636 3.38952035 15 6 C13.68 6.33 12.36 6.66 11 7 C11 7.66 11 8.32 11 9 C10.01 8.67 9.02 8.34 8 8 C8 7.34 8 6.68 8 6 C7.01 5.67 6.02 5.34 5 5 C5 4.34 5 3.68 5 3 C3.35 3 1.7 3 0 3 C0 2.01 0 1.02 0 0 Z " fill="#A78766" transform="translate(340,235)"/>
<path d="M0 0 C0 0.99 0 1.98 0 3 C-3.63 4.98 -7.26 6.96 -11 9 C-11.33 7.68 -11.66 6.36 -12 5 C-9.50907189 3.75453595 -8.58919267 4.2232422 -6 5 C-6 4.01 -6 3.02 -6 2 C-2.25 0 -2.25 0 0 0 Z " fill="#B88E6C" transform="translate(345,344)"/>
<path d="M0 0 C1.25 1.5625 1.25 1.5625 2 4 C-0.07143214 8.46154614 -2.30726745 11.70291736 -6 15 C-6 13.35 -6 11.7 -6 10 C-5.34 10 -4.68 10 -4 10 C-3.67 8.35 -3.34 6.7 -3 5 C-2.01 5 -1.02 5 0 5 C0 3.35 0 1.7 0 0 Z " fill="#BD936E" transform="translate(206,307)"/>
<path d="M0 0 C2.02915769 0.93942486 4.03875312 1.92598385 6 3 C3 4 3 4 1.1875 3.125 C0.465625 2.75375 -0.25625 2.3825 -1 2 C-2.99110401 1.61709538 -4.99100513 1.27395385 -7 1 C-7 2.32 -7 3.64 -7 5 C-8.65 5.66 -10.3 6.32 -12 7 C-7.26708075 -1.67701863 -7.26708075 -1.67701863 0 0 Z " fill="#987860" transform="translate(259,270)"/>
<path d="M0 0 C1.38076179 3.83544942 0.85712183 7.07152497 0 11 C-1.4375 12.9375 -1.4375 12.9375 -3 14 C-3.66 14 -4.32 14 -5 14 C-4.54636829 12.41531323 -4.08688548 10.83230076 -3.625 9.25 C-3.36976563 8.36828125 -3.11453125 7.4865625 -2.8515625 6.578125 C-2.0790066 4.23919428 -1.16374324 2.16557438 0 0 Z " fill="#A38465" transform="translate(136,173)"/>
<path d="M0 0 C0 2.64779693 -0.17195931 4.51587793 -1 7 C-1.99 7.495 -1.99 7.495 -3 8 C-3.0825 8.639375 -3.165 9.27875 -3.25 9.9375 C-3.4975 10.618125 -3.745 11.29875 -4 12 C-7.0625 13.25 -7.0625 13.25 -10 14 C-6.84577733 9.17403931 -3.71080883 4.42442592 0 0 Z " fill="#977860" transform="translate(135,370)"/>
<path d="M0 0 C1 2 1 2 0.25 4.5 C-1 7 -1 7 -4 9 C-4.33 9.99 -4.66 10.98 -5 12 C-7.5625 13.1875 -7.5625 13.1875 -10 14 C-6.84577733 9.17403931 -3.71080883 4.42442592 0 0 Z " fill="#9A785B" transform="translate(154,344)"/>
<path d="M0 0 C0.6875 1.8125 0.6875 1.8125 1 4 C-0.4375 5.75 -0.4375 5.75 -2 7 C-0.35 6.67 1.3 6.34 3 6 C1.375 8 1.375 8 -1 10 C-4.25 10.25 -4.25 10.25 -7 10 C-4.75421558 6.59260295 -2.48862878 3.23521742 0 0 Z " fill="#B89065" transform="translate(355,302)"/>
<path d="M0 0 C0 0.66 0 1.32 0 2 C-0.639375 2.28875 -1.27875 2.5775 -1.9375 2.875 C-4.15206079 3.82823451 -4.15206079 3.82823451 -5 6 C-5.66 6 -6.32 6 -7 6 C-6.67 6.99 -6.34 7.98 -6 9 C-6.99 9.33 -7.98 9.66 -9 10 C-9.33 9.34 -9.66 8.68 -10 8 C-12.02463255 7.34786708 -12.02463255 7.34786708 -14 7 C-12.04480616 5.82807953 -10.0857461 4.6626071 -8.125 3.5 C-7.03445313 2.8503125 -5.94390625 2.200625 -4.8203125 1.53125 C-2 0 -2 0 0 0 Z " fill="#B38B68" transform="translate(310,299)"/>
<path d="M0 0 C1.125 3.75 1.125 3.75 0 6 C-0.99 6.33 -1.98 6.66 -3 7 C-3.33 8.98 -3.66 10.96 -4 13 C-6 13 -8 13 -10 13 C-8.91562412 10.83124824 -7.70818185 9.70818185 -6 8 C-4.91609404 6.62072308 -3.85388564 5.22415608 -2.8125 3.8125 C-2.28269531 3.09707031 -1.75289062 2.38164062 -1.20703125 1.64453125 C-0.80871094 1.10183594 -0.41039062 0.55914062 0 0 Z " fill="#977052" transform="translate(208,270)"/>
<path d="M0 0 C0.33 0 0.66 0 1 0 C2.19088986 5.38027025 3.2919519 10.45291384 3 16 C1.66666667 16 0.33333333 16 -1 16 C-0.67 10.72 -0.34 5.44 0 0 Z " fill="#B0835E" transform="translate(147,245)"/>
<path d="M0 0 C0.33 0 0.66 0 1 0 C1.27263672 1.16015625 1.27263672 1.16015625 1.55078125 2.34375 C2.72167304 7.1954452 3.87134573 11.93079476 5.75 16.5625 C7 20 7 20 6 23 C1.35976595 15.41467275 0.15240642 8.83957242 0 0 Z " fill="#6F5740" transform="translate(183,245)"/>
<path d="M0 0 C0.66 0 1.32 0 2 0 C2.33 1.98 2.66 3.96 3 6 C3.99 6 4.98 6 6 6 C6 7.32 6 8.64 6 10 C6.99 10 7.98 10 9 10 C9.625 11.875 9.625 11.875 10 14 C9.34 14.66 8.68 15.32 8 16 C4 9.25 4 9.25 4 7 C3.34 7 2.68 7 2 7 C1.01 5.02 0.02 3.04 -1 1 C-0.67 0.67 -0.34 0.34 0 0 Z " fill="#B38B68" transform="translate(326,179)"/>
<path d="M0 0 C0.99 0 1.98 0 3 0 C1.38102741 3.30081791 -0.35924309 6.52557433 -2.125 9.75 C-2.66382813 10.73484375 -3.20265625 11.7196875 -3.7578125 12.734375 C-4.37269531 13.85585937 -4.37269531 13.85585937 -5 15 C-5.66 14.01 -6.32 13.02 -7 12 C-6 9 -6 9 -3.9375 7.8125 C-3.298125 7.544375 -2.65875 7.27625 -2 7 C-2 5.68 -2 4.36 -2 3 C-1.34 3 -0.68 3 0 3 C0 2.01 0 1.02 0 0 Z " fill="#AF8663" transform="translate(195,184)"/>
<path d="M0 0 C3.86107457 2.57404971 3.94319692 4.61020259 5 9 C6.65 8.67 8.3 8.34 10 8 C9.67 8.99 9.34 9.98 9 11 C7.02 11.33 5.04 11.66 3 12 C2 8 1 4 0 0 Z " fill="#C39D7F" transform="translate(368,180)"/>
<path d="M0 0 C0.6796875 1.734375 0.6796875 1.734375 1 4 C-0.1796875 6.140625 -0.1796875 6.140625 -1.875 8.25 C-2.42929688 8.95640625 -2.98359375 9.6628125 -3.5546875 10.390625 C-4.03164062 10.92171875 -4.50859375 11.4528125 -5 12 C-5.33 12 -5.66 12 -6 12 C-6 9.36 -6 6.72 -6 4 C-4.35 4 -2.7 4 -1 4 C-0.67 2.68 -0.34 1.36 0 0 Z " fill="#C89B6F" transform="translate(239,324)"/>
<path d="M0 0 C0.99 0 1.98 0 3 0 C1.63356852 3.98542514 -0.10109014 6.92539863 -3 10 C-3.99 10 -4.98 10 -6 10 C-6.33 8.68 -6.66 7.36 -7 6 C-5.68 6.33 -4.36 6.66 -3 7 C-2.67 6.01 -2.34 5.02 -2 4 C-1.34870203 2.65909241 -0.68486725 1.32407669 0 0 Z " fill="#A37C66" transform="translate(186,396)"/>
<path d="M0 0 C1.1875 2.5625 1.1875 2.5625 2 5 C0.88625 4.7525 0.88625 4.7525 -0.25 4.5 C-3.19006578 3.88074304 -3.19006578 3.88074304 -7 4 C-7.66 4 -8.32 4 -9 4 C-9 3.34 -9 2.68 -9 2 C-3.375 -1.125 -3.375 -1.125 0 0 Z " fill="#F8C087" transform="translate(301,307)"/>
<path d="M0 0 C1.11375 0.2475 1.11375 0.2475 2.25 0.5 C5.19006578 1.11925696 5.19006578 1.11925696 9 1 C9 2.65 9 4.3 9 6 C6.03 5.505 6.03 5.505 3 5 C3 4.34 3 3.68 3 3 C2.01 2.67 1.02 2.34 0 2 C0 1.34 0 0.68 0 0 Z " fill="#D3A46F" transform="translate(156,322)"/>
<path d="M0 0 C5.42096702 1.35524176 10.0778687 3.36634013 15 6 C13.02 6.99 13.02 6.99 11 8 C11 7.34 11 6.68 11 6 C8.69 5.67 6.38 5.34 4 5 C4 4.01 4 3.02 4 2 C2.68 1.67 1.36 1.34 0 1 C0 0.67 0 0.34 0 0 Z " fill="#9F7D62" transform="translate(360,244)"/>
<path d="M0 0 C2.6766477 0.91397726 4.42046542 2.05030387 6.5625 3.875 C3.5925 3.545 0.6225 3.215 -2.4375 2.875 C-3.0975 4.195 -3.7575 5.515 -4.4375 6.875 C-5.4275 7.205 -6.4175 7.535 -7.4375 7.875 C-4.58794248 -0.2352791 -4.58794248 -0.2352791 0 0 Z " fill="#7B6451" transform="translate(241.4375,228.125)"/>
<path d="M0 0 C5.57142857 5.14285714 5.57142857 5.14285714 6 9 C4 8 2 7 0 6 C0 5.01 0 4.02 0 3 C-0.99 2.67 -1.98 2.34 -3 2 C-2.01 2 -1.02 2 0 2 C0 1.34 0 0.68 0 0 Z " fill="#BF9974" transform="translate(373,147)"/>
<path d="M0 0 C5.77378925 0.4811491 9.95859836 2.18467181 15 5 C10.74938644 6.41687119 8.28148375 5.19320039 4 4 C4 3.34 4 2.68 4 2 C2.68 1.34 1.36 0.68 0 0 Z " fill="#A6886D" transform="translate(291,132)"/>
<path d="M0 0 C5.7266425 2.9826263 10.26638344 6.62294157 15 11 C11.78120986 11 10.69723904 10.63469033 8 9 C6.66666667 7.66666667 5.33333333 6.33333333 4 5 C3.01 4.67 2.02 4.34 1 4 C0.3125 1.9375 0.3125 1.9375 0 0 Z " fill="#8B674E" transform="translate(342,117)"/>
<path d="M0 0 C0 1.32 0 2.64 0 4 C-0.969375 4.2475 -1.93875 4.495 -2.9375 4.75 C-4.4534375 5.36875 -4.4534375 5.36875 -6 6 C-6.96877057 8.03243548 -6.96877057 8.03243548 -7 10 C-8.32 9.34 -9.64 8.68 -11 8 C-9.37660195 6.29115995 -7.70680947 4.62553283 -6 3 C-5.34 3 -4.68 3 -4 3 C-4 2.34 -4 1.68 -4 1 C-2 0 -2 0 0 0 Z " fill="#B28C67" transform="translate(180,121)"/>
<path d="M0 0 C0.66 0.33 1.32 0.66 2 1 C0.44298069 5.67105792 -2.08447373 9.08705685 -5 13 C-6.125 9.25 -6.125 9.25 -5 7 C-4.34 7 -3.68 7 -3 7 C-2.67 5.68 -2.34 4.36 -2 3 C-1.34 3 -0.68 3 0 3 C0 2.01 0 1.02 0 0 Z " fill="#AD8B6A" transform="translate(162,369)"/>
<path d="M0 0 C1.32 0.66 2.64 1.32 4 2 C2.63016497 5.16115776 2.0109362 5.9927092 -1 8 C-1 6.68 -1 5.36 -1 4 C-1.99 3.67 -2.98 3.34 -4 3 C-2.68 2.01 -1.36 1.02 0 0 Z " fill="#C99D6F" transform="translate(165,362)"/>
<path d="M0 0 C0.66 0.33 1.32 0.66 2 1 C2 1.66 2 2.32 2 3 C2.99 3.33 3.98 3.66 5 4 C3.35 5.32 1.7 6.64 0 8 C-0.33 7.01 -0.66 6.02 -1 5 C-1.66 4.67 -2.32 4.34 -3 4 C-1 1 -1 1 0 0 Z " fill="#CB9E75" transform="translate(348,336)"/>
<path d="M0 0 C2.625 0.375 2.625 0.375 5 1 C2.42215154 3.64752004 0.08351902 5.94432065 -3 8 C-2.25 2.25 -2.25 2.25 0 0 Z " fill="#C1966E" transform="translate(356,331)"/>
<path d="M0 0 C3.37881434 1.39813007 5.15017878 2.82887791 7 6 C7.6875 9.25 7.6875 9.25 8 12 C4.72257902 8.89973691 2.06895163 6.02901106 0 2 C0 1.34 0 0.68 0 0 Z " fill="#AD8765" transform="translate(146,308)"/>
<path d="M0 0 C0.66 0 1.32 0 2 0 C2.22036864 3.85645121 1.60355101 6.49223216 0 10 C-1.32 9.67 -2.64 9.34 -4 9 C-3.52418802 7.68628013 -3.04424851 6.37405454 -2.5625 5.0625 C-2.29566406 4.33160156 -2.02882813 3.60070312 -1.75390625 2.84765625 C-1 1 -1 1 0 0 Z " fill="#F2BE8C" transform="translate(365,289)"/>
<path d="M0 0 C2.0625 -0.4375 2.0625 -0.4375 5 0 C7.57260172 2.12080183 9.79254499 4.50627561 12 7 C11.01 7.66 10.02 8.32 9 9 C6.47411298 6.63707344 5.11179163 5.33537489 4 2 C1.99983534 0.79117904 1.99983534 0.79117904 0 0 Z " fill="#B59071" transform="translate(353,129)"/>
<path d="M0 0 C2.5 1.375 2.5 1.375 5 3 C5 3.66 5 4.32 5 5 C5.639375 5.12375 6.27875 5.2475 6.9375 5.375 C7.618125 5.58125 8.29875 5.7875 9 6 C9.33 6.66 9.66 7.32 10 8 C9.401875 7.835 8.80375 7.67 8.1875 7.5 C5.88655664 6.8885876 5.88655664 6.8885876 3 7 C2.67 6.34 2.34 5.68 2 5 C1.34 5 0.68 5 0 5 C0 3.35 0 1.7 0 0 Z " fill="#EABB8A" transform="translate(345,121)"/>
<path d="M0 0 C1 2 1 2 0.375 4.3125 C-1.5567801 8.08825202 -4.17023607 11.08511804 -8 13 C-7.6875 10.125 -7.6875 10.125 -7 7 C-4 5 -4 5 -1 5 C-0.67 3.35 -0.34 1.7 0 0 Z " fill="#E6B78B" transform="translate(132,377)"/>
<path d="M0 0 C0.33 0.66 0.66 1.32 1 2 C0.06553465 4.03144641 -0.93224776 6.03533587 -2 8 C-2.66 8 -3.32 8 -4 8 C-4 8.66 -4 9.32 -4 10 C-3.01 10.33 -2.02 10.66 -1 11 C-2.65 11 -4.3 11 -6 11 C-5.55530671 5.96014269 -3.28656638 3.62365012 0 0 Z " fill="#9B7B61" transform="translate(251,325)"/>
<path d="M0 0 C-0.66 1.65 -1.32 3.3 -2 5 C-2.78375 4.67 -3.5675 4.34 -4.375 4 C-6.84332497 2.88133489 -6.84332497 2.88133489 -9 3 C-9 2.34 -9 1.68 -9 1 C-6.04335481 -0.4783226 -3.25770263 -0.06032783 0 0 Z " fill="#F7BB87" transform="translate(229,137)"/>
<path d="M0 0 C3 2 3 2 4 3 C3.34 4.65 2.68 6.3 2 8 C1.01 8 0.02 8 -1 8 C-1.625 5.125 -1.625 5.125 -2 2 C-1.34 1.34 -0.68 0.68 0 0 Z " fill="#C29770" transform="translate(142,392)"/>
<path d="M0 0 C-3.3 2.31 -6.6 4.62 -10 7 C-10.33 6.34 -10.66 5.68 -11 5 C-10 2 -10 2 -8.22265625 1.015625 C-7.15337891 0.63664062 -7.15337891 0.63664062 -6.0625 0.25 C-5.35222656 -0.01296875 -4.64195312 -0.2759375 -3.91015625 -0.546875 C-2 -1 -2 -1 0 0 Z " fill="#AA8462" transform="translate(331,313)"/>
<path d="M0 0 C0.99 0.33 1.98 0.66 3 1 C3.68939809 3.32671854 4.35466922 5.66067594 5 8 C6.47761659 9.90170054 6.47761659 9.90170054 8 11 C7.01 12.485 7.01 12.485 6 14 C4.9923048 12.2335343 3.99408286 10.46166177 3 8.6875 C2.443125 7.70136719 1.88625 6.71523438 1.3125 5.69921875 C0 3 0 3 0 0 Z " fill="#98795C" transform="translate(136,290)"/>
<path d="M0 0 C1 2 1 2 0.375 4.3125 C-1.5567801 8.08825202 -4.17023607 11.08511804 -8 13 C-6.52307692 8.32307692 -6.52307692 8.32307692 -3.875 6.6875 C-2.946875 6.3471875 -2.946875 6.3471875 -2 6 C-2 4.35 -2 2.7 -2 1 C-1.34 0.67 -0.68 0.34 0 0 Z " fill="#EFBC8D" transform="translate(245,281)"/>
<path d="M0 0 C2.30874711 2.16614803 4.05290181 4.39206608 5.75 7.0625 C6.19859375 7.75472656 6.6471875 8.44695312 7.109375 9.16015625 C7.40328125 9.76730469 7.6971875 10.37445313 8 11 C7.67 11.66 7.34 12.32 7 13 C2.18602057 8.94612259 1.11458074 5.9782058 0 0 Z " fill="#B18C6A" transform="translate(348,172)"/>
<path d="M0 0 C2.475 0.99 2.475 0.99 5 2 C5 2.66 5 3.32 5 4 C6.32 4.66 7.64 5.32 9 6 C6.5332355 6.88336837 5.36140628 7.1312406 2.859375 6.22265625 C2.16328125 5.83980469 1.4671875 5.45695313 0.75 5.0625 C0.04359375 4.68222656 -0.6628125 4.30195313 -1.390625 3.91015625 C-1.92171875 3.60980469 -2.4528125 3.30945313 -3 3 C-2.01 2.67 -1.02 2.34 0 2 C0 1.34 0 0.68 0 0 Z " fill="#AF8662" transform="translate(294,154)"/>
<path d="M0 0 C0.66 0.33 1.32 0.66 2 1 C0.6062718 5.43458973 -1.60582235 7.87378374 -5 11 C-4.125 6.25 -4.125 6.25 -3 4 C-2.34 4 -1.68 4 -1 4 C-0.67 2.68 -0.34 1.36 0 0 Z " fill="#A27B62" transform="translate(152,383)"/>
<path d="M0 0 C7.57142857 4 7.57142857 4 10 8 C8.68 8 7.36 8 6 8 C6 7.34 6 6.68 6 6 C5.195625 5.7525 4.39125 5.505 3.5625 5.25 C1 4 1 4 0.1875 1.875 C0.125625 1.25625 0.06375 0.6375 0 0 Z " fill="#AE8B6A" transform="translate(324,148)"/>
<path d="M0 0 C1.62490954 -0.02698189 3.24994633 -0.04638757 4.875 -0.0625 C5.77992188 -0.07410156 6.68484375 -0.08570312 7.6171875 -0.09765625 C10 0 10 0 12 1 C12 1.66 12 2.32 12 3 C10.18674449 2.88648483 8.37436643 2.75887039 6.5625 2.625 C5.04849609 2.52058594 5.04849609 2.52058594 3.50390625 2.4140625 C2.67761719 2.27742188 1.85132813 2.14078125 1 2 C0.67 1.34 0.34 0.68 0 0 Z " fill="#AA8364" transform="translate(278,116)"/>
<path d="M0 0 C0.99 0 1.98 0 3 0 C2.58578031 4.83256305 0.53586014 6.82679218 -3 10 C-2.67 7.69 -2.34 5.38 -2 3 C-1.34 3 -0.68 3 0 3 C0 2.01 0 1.02 0 0 Z " fill="#B68E6D" transform="translate(172,354)"/>
<path d="M0 0 C0 2.85602507 -0.3622683 4.48384316 -1.3125 7.125 C-1.55613281 7.82882812 -1.79976562 8.53265625 -2.05078125 9.2578125 C-3 11 -3 11 -6 12 C-4.81819916 6.97734643 -3.55007718 3.9050849 0 0 Z " fill="#B98F66" transform="translate(208,330)"/>
<path d="M0 0 C5.94 0.99 5.94 0.99 12 2 C12.33 3.32 12.66 4.64 13 6 C11.58208592 5.54554036 10.16571954 5.08625056 8.75 4.625 C7.96109375 4.36976563 7.1721875 4.11453125 6.359375 3.8515625 C4.13372042 3.04826333 2.09068328 2.10288338 0 1 C0 0.67 0 0.34 0 0 Z " fill="#9F7756" transform="translate(328,255)"/>
<path d="M0 0 C2 3 2 3 1.9375 4.875 C0.59492632 7.91816701 -1.58070901 9.76680832 -4 12 C-4 10.68 -4 9.36 -4 8 C-3.34 8 -2.68 8 -2 8 C-2 6.68 -2 5.36 -2 4 C-1.34 4 -0.68 4 0 4 C0 2.68 0 1.36 0 0 Z " fill="#B68C6A" transform="translate(204,369)"/>
<path d="M0 0 C1.97566188 1.97566188 2.89579072 3.52337094 4.125 6 C4.47820312 6.70125 4.83140625 7.4025 5.1953125 8.125 C6 10 6 10 6 12 C5.34 12 4.68 12 4 12 C4 11.34 4 10.68 4 10 C3.34 10 2.68 10 2 10 C0.68373308 6.38026598 0 3.90432869 0 0 Z " fill="#9F8161" transform="translate(157,280)"/>
<path d="M0 0 C2.29633824 3.44450737 2.54016485 5.93812283 3 10 C1.35 9.67 -0.3 9.34 -2 9 C-1.34 6.03 -0.68 3.06 0 0 Z " fill="#BC9067" transform="translate(150,261)"/>
<path d="M0 0 C4.12751449 0.60698743 7.3321148 2.03810791 11 4 C7.19362399 5.46399077 4.65257704 4.62336757 1 3 C0.67 2.01 0.34 1.02 0 0 Z " fill="#A78262" transform="translate(306,220)"/>
<path d="M0 0 C1.9375 0.625 1.9375 0.625 4 2 C4.75 5.125 4.75 5.125 5 8 C1.63279613 6.60667426 0.0140476 5.0210714 -2 2 C-1.01 2 -0.02 2 1 2 C0.67 1.34 0.34 0.68 0 0 Z " fill="#BE966E" transform="translate(353,155)"/>
<path d="M0 0 C4.98862849 -0.29344873 7.96229058 -0.05887078 12 3 C12 3.33 12 3.66 12 4 C7.12335991 4.34833144 4.22949995 3.41685712 0 1 C0 0.67 0 0.34 0 0 Z " fill="#BC9772" transform="translate(311,103)"/>
<path d="M0 0 C2.31 0 4.62 0 7 0 C7 0.66 7 1.32 7 2 C9.475 2.99 9.475 2.99 12 4 C9.5332355 4.88336837 8.36140628 5.1312406 5.859375 4.22265625 C5.16328125 3.83980469 4.4671875 3.45695312 3.75 3.0625 C3.04359375 2.68222656 2.3371875 2.30195313 1.609375 1.91015625 C1.07828125 1.60980469 0.5471875 1.30945313 0 1 C0 0.67 0 0.34 0 0 Z " fill="#8F6F60" transform="translate(114,402)"/>
<path d="M0 0 C1.32 0.33 2.64 0.66 4 1 C3.34 1 2.68 1 2 1 C2 1.66 2 2.32 2 3 C1.34 3 0.68 3 0 3 C-0.268125 3.639375 -0.53625 4.27875 -0.8125 4.9375 C-2 7 -2 7 -5 8 C-4.67 6.68 -4.34 5.36 -4 4 C-3.34 4 -2.68 4 -2 4 C-1.34 2.68 -0.68 1.36 0 0 Z " fill="#9F8364" transform="translate(236,346)"/>
<path d="M0 0 C0.99 0 1.98 0 3 0 C1.50902342 3.7952131 -0.75700849 5.61042731 -4 8 C-4 6.68 -4 5.36 -4 4 C-3.34 4 -2.68 4 -2 4 C-1.34 2.68 -0.68 1.36 0 0 Z " fill="#BE986C" transform="translate(335,304)"/>
<path d="M0 0 C0 3.11227195 -0.45627049 5.94152152 -1 9 C-2.32 9 -3.64 9 -5 9 C-5 9.66 -5 10.32 -5 11 C-5.66 10.67 -6.32 10.34 -7 10 C-3.535 5.05 -3.535 5.05 0 0 Z " fill="#957358" transform="translate(363,291)"/>
<path d="M0 0 C2.31 0 4.62 0 7 0 C6.02433888 1.16959987 5.044375 2.33561177 4.0625 3.5 C3.51722656 4.1496875 2.97195312 4.799375 2.41015625 5.46875 C1.94480469 5.9740625 1.47945312 6.479375 1 7 C0.67 7 0.34 7 0 7 C0 4.69 0 2.38 0 0 Z " fill="#B58B67" transform="translate(242,257)"/>
<path d="M0 0 C0.99 0 1.98 0 3 0 C3 0.66 3 1.32 3 2 C3.99 2 4.98 2 6 2 C6 2.66 6 3.32 6 4 C3.69 4.33 1.38 4.66 -1 5 C-1.33 4.01 -1.66 3.02 -2 2 C-1.34 1.34 -0.68 0.68 0 0 Z " fill="#FCBF80" transform="translate(333,234)"/>
<path d="M0 0 C4.23429756 1.31061591 8.07407404 2.94356259 12 5 C7.98367013 6.33877662 5.90367509 5.49049413 2 4 C0.5625 1.875 0.5625 1.875 0 0 Z " fill="#A48263" transform="translate(248,232)"/>
<path d="M0 0 C1.98 0.66 3.96 1.32 6 2 C6 2.33 6 2.66 6 3 C4.63875 3.4021875 4.63875 3.4021875 3.25 3.8125 C0.28528037 4.89576294 -1.6169754 5.98359457 -4 8 C-2.87548273 5.0280615 -1.77706209 2.66559313 0 0 Z " fill="#E4B78E" transform="translate(293,215)"/>
<path d="M0 0 C0.66 0.33 1.32 0.66 2 1 C2 2.65 2 4.3 2 6 C2.99 6 3.98 6 5 6 C5 6.99 5 7.98 5 9 C2.5625 8.25 2.5625 8.25 0 7 C-1.32284898 4.07083439 -1.04059132 3.12177395 0 0 Z " fill="#EEBB88" transform="translate(379,158)"/>
<path d="M0 0 C3.375 -0.125 3.375 -0.125 7 0 C7.66 0.66 8.32 1.32 9 2 C8.071875 2.185625 8.071875 2.185625 7.125 2.375 C4.80879168 2.87197356 4.80879168 2.87197356 3 5 C2.01 5.33 1.02 5.66 0 6 C0 4.02 0 2.04 0 0 Z " fill="#E4B17D" transform="translate(302,138)"/>
<path d="M0 0 C0.66 0.33 1.32 0.66 2 1 C1.34 2.65 0.68 4.3 0 6 C-0.99 6 -1.98 6 -3 6 C-3 6.66 -3 7.32 -3 8 C-3.66 8 -4.32 8 -5 8 C-3.62845496 5.04590299 -2.01136276 2.55991624 0 0 Z " fill="#B88D69" transform="translate(160,336)"/>
<path d="M0 0 C0.99 0.33 1.98 0.66 3 1 C2.45773019 4.79588866 0.79872437 6.47211993 -2 9 C-2 7.35 -2 5.7 -2 4 C-1.34 4 -0.68 4 0 4 C0 2.68 0 1.36 0 0 Z " fill="#AB8968" transform="translate(231,273)"/>
<path d="M0 0 C3.3 0.99 6.6 1.98 10 3 C6.99382731 6.00617269 4.17618402 5.59585316 0 6 C0.185625 5.38125 0.37125 4.7625 0.5625 4.125 C1.23686176 1.95839822 1.23686176 1.95839822 0 0 Z " fill="#F6C18B" transform="translate(256,271)"/>
<path d="M0 0 C0.33 0.99 0.66 1.98 1 3 C0.01 3 -0.98 3 -2 3 C-1.67 3.598125 -1.34 4.19625 -1 4.8125 C0 7 0 7 0 10 C-0.66 10 -1.32 10 -2 10 C-2.66 7.03 -3.32 4.06 -4 1 C-2 0 -2 0 0 0 Z " fill="#F5BD88" transform="translate(135,272)"/>
<path d="M0 0 C2 1.75 2 1.75 4 4 C4 5.32 4 6.64 4 8 C2.68 7.67 1.36 7.34 0 7 C0 4.69 0 2.38 0 0 Z " fill="#EEBB89" transform="translate(129,264)"/>
<path d="M0 0 C2 2 2 2 2 5 C2.66 5 3.32 5 4 5 C4.85856655 8.4342662 4.97591583 10.61682513 4 14 C3.32739649 12.23141309 2.66211605 10.46003984 2 8.6875 C1.62875 7.70136719 1.2575 6.71523438 0.875 5.69921875 C0 3 0 3 0 0 Z " fill="#9C775D" transform="translate(162,259)"/>
<path d="M0 0 C0.33 0 0.66 0 1 0 C2.25 6.625 2.25 6.625 0 10 C-0.66 10 -1.32 10 -2 10 C-1.125 2.25 -1.125 2.25 0 0 Z " fill="#EFBE8E" transform="translate(131,190)"/>
<path d="M0 0 C1.65 0.33 3.3 0.66 5 1 C3.68 2.65 2.36 4.3 1 6 C0.34 5.67 -0.32 5.34 -1 5 C-1.33 5.66 -1.66 6.32 -2 7 C-2 5.35 -2 3.7 -2 2 C-1.34 2 -0.68 2 0 2 C0 1.34 0 0.68 0 0 Z " fill="#F8BF87" transform="translate(238,347)"/>
<path d="M0 0 C2.00720923 0.28674418 4.0085944 0.61866701 6 1 C4.02 3.97 4.02 3.97 2 7 C0 4 0 4 -1 1 C-0.67 0.67 -0.34 0.34 0 0 Z " fill="#BB9467" transform="translate(370,314)"/>
<path d="M0 0 C1.43088528 2.86177057 0.59991697 4.93375773 0 8 C-1.65 8.33 -3.3 8.66 -5 9 C-3.7508258 5.54074837 -2.32472205 2.85306797 0 0 Z " fill="#B18968" transform="translate(231,298)"/>
<path d="M0 0 C0.66 0.33 1.32 0.66 2 1 C-0.31 3.64 -2.62 6.28 -5 9 C-6.32 8.67 -7.64 8.34 -9 8 C-6.03 5.36 -3.06 2.72 0 0 Z " fill="#AB865F" transform="translate(319,290)"/>
<path d="M0 0 C2.46800047 1.15173355 4.04783565 2.04783565 6 4 C6.125 6.625 6.125 6.625 6 9 C0.42857143 3.85714286 0.42857143 3.85714286 0 0 Z " fill="#B28B65" transform="translate(175,288)"/>
<path d="M0 0 C1.98 0.66 3.96 1.32 6 2 C6 2.66 6 3.32 6 4 C6.66 4 7.32 4 8 4 C8 4.66 8 5.32 8 6 C5.03 5.01 2.06 4.02 -1 3 C-0.67 2.01 -0.34 1.02 0 0 Z " fill="#A5805E" transform="translate(295,277)"/>
<path d="M0 0 C0.99 0.33 1.98 0.66 3 1 C3 1.99 3 2.98 3 4 C3.99 4.33 4.98 4.66 6 5 C3 6 3 6 -0.1875 4.5625 C-1.115625 4.046875 -2.04375 3.53125 -3 3 C-2.01 2.67 -1.02 2.34 0 2 C0 1.34 0 0.68 0 0 Z " fill="#B08960" transform="translate(322,249)"/>
<path d="M0 0 C0 2.62113708 -0.31292445 4.50935112 -1 7 C-2.32 7.33 -3.64 7.66 -5 8 C-5.66 7.01 -6.32 6.02 -7 5 C-6.401875 4.9175 -5.80375 4.835 -5.1875 4.75 C-2.4033704 3.79544128 -1.56688858 2.42867729 0 0 Z " fill="#B08B69" transform="translate(276,237)"/>
<path d="M0 0 C4.455 0.99 4.455 0.99 9 2 C8.67 2.66 8.34 3.32 8 4 C5.66682784 4.77772405 3.38564077 5.42415568 1 6 C1 5.01 1 4.02 1 3 C0.67 2.01 0.34 1.02 0 0 Z " fill="#F1BF8A" transform="translate(208,122)"/>
<path d="M0 0 C1.32 0.33 2.64 0.66 4 1 C3.67 1.99 3.34 2.98 3 4 C5.97 4 8.94 4 12 4 C12 4.33 12 4.66 12 5 C8.37 5 4.74 5 1 5 C0.67 3.35 0.34 1.7 0 0 Z " fill="#E5B381" transform="translate(238,112)"/>
<path d="M0 0 C0.33 0.66 0.66 1.32 1 2 C-0.125 5 -0.125 5 -2 8 C-4.6171875 9.1875 -4.6171875 9.1875 -7 10 C-6.02223933 8.51990357 -5.0427506 7.04094856 -4.0625 5.5625 C-3.51722656 4.73878906 -2.97195312 3.91507812 -2.41015625 3.06640625 C-1 1 -1 1 0 0 Z " fill="#9A775D" transform="translate(196,346)"/>
<path d="M0 0 C0.66 0 1.32 0 2 0 C1.38545304 3.99455527 -0.70646737 6.74466336 -3 10 C-3.33 8.68 -3.66 7.36 -4 6 C-3.34 6 -2.68 6 -2 6 C-1.7834375 5.071875 -1.7834375 5.071875 -1.5625 4.125 C-1 2 -1 2 0 0 Z " fill="#C29872" transform="translate(229,337)"/>
<path d="M0 0 C0.99 0.33 1.98 0.66 3 1 C2.34 2.98 1.68 4.96 1 7 C0.34 7 -0.32 7 -1 7 C-1.33 7.99 -1.66 8.98 -2 10 C-2.33 9.34 -2.66 8.68 -3 8 C-2.0337499 5.98347806 -1.03291676 3.98320018 0 2 C0 1.34 0 0.68 0 0 Z " fill="#EFBC8C" transform="translate(185,300)"/>
<path d="M0 0 C1.70884005 1.62339805 3.37446717 3.29319053 5 5 C5 5.66 5 6.32 5 7 C3.68 7 2.36 7 1 7 C0.67 4.69 0.34 2.38 0 0 Z " fill="#F5BD8C" transform="translate(194,278)"/>
<path d="M0 0 C-0.804375 0.61875 -1.60875 1.2375 -2.4375 1.875 C-5.03874519 3.74164041 -5.03874519 3.74164041 -6 6 C-6.99 5.67 -7.98 5.34 -9 5 C-9 4.34 -9 3.68 -9 3 C-8.01 3 -7.02 3 -6 3 C-6 2.01 -6 1.02 -6 0 C-2.25 -1.125 -2.25 -1.125 0 0 Z " fill="#AD8A67" transform="translate(187,146)"/>
<path d="M0 0 C-0.33 0.66 -0.66 1.32 -1 2 C-3.97 2 -6.94 2 -10 2 C-6.64608848 -1.35391152 -4.35183427 -1.05855428 0 0 Z " fill="#CAA079" transform="translate(232,135)"/>
<path d="M0 0 C0.66 0.33 1.32 0.66 2 1 C1.67 1.99 1.34 2.98 1 4 C-1.64 4.33 -4.28 4.66 -7 5 C-4.63707344 2.47411298 -3.33537489 1.11179163 0 0 Z " fill="#CC9D77" transform="translate(187,116)"/>
<path d="M0 0 C-2.60427663 2.60427663 -4.39566205 2.50528695 -8 3 C-9.66804677 3.32635698 -11.33524314 3.65725594 -13 4 C-9.68492165 -0.05176242 -5.01001751 -1.92692981 0 0 Z " fill="#E8BB8E" transform="translate(222,102)"/>
<path d="M0 0 C2.97 0 5.94 0 9 0 C5.55549263 2.29633824 3.06187717 2.54016485 -1 3 C-0.67 2.01 -0.34 1.02 0 0 Z " fill="#A38167" transform="translate(298,365)"/>
<path d="M0 0 C0.33 0.66 0.66 1.32 1 2 C-0.62339805 3.70884005 -2.29319053 5.37446717 -4 7 C-4.66 7 -5.32 7 -6 7 C-4.60667426 3.63279613 -3.0210714 2.0140476 0 0 Z " fill="#C19B75" transform="translate(147,356)"/>
<path d="M0 0 C1 4 1 4 0 6 C-3.0625 6.625 -3.0625 6.625 -6 7 C-4.02 4.69 -2.04 2.38 0 0 Z " fill="#B4916F" transform="translate(347,312)"/>
<path d="M0 0 C1.98 0 3.96 0 6 0 C5.67 1.32 5.34 2.64 5 4 C3.02 3.34 1.04 2.68 -1 2 C-0.67 1.34 -0.34 0.68 0 0 Z " fill="#FDBD7A" transform="translate(260,275)"/>
<path d="M0 0 C4.03520597 1.58962659 8.01811282 3.28232318 12 5 C12 5.33 12 5.66 12 6 C8.18683244 6.57775266 6.23331413 5.71685634 3.1875 3.5625 C1.35546875 2.19140625 1.35546875 2.19140625 0 1 C0 0.67 0 0.34 0 0 Z " fill="#856A5B" transform="translate(383,254)"/>
<path d="M0 0 C3.0916909 2.52956528 3.90931332 5.22454612 5 9 C2.525 8.01 2.525 8.01 0 7 C0 4.69 0 2.38 0 0 Z " fill="#A27E5E" transform="translate(384,163)"/>
<path d="M0 0 C1.9375 0.6875 1.9375 0.6875 4 2 C4.75 4.625 4.75 4.625 5 7 C3.02 5.68 1.04 4.36 -1 3 C-0.67 2.01 -0.34 1.02 0 0 Z " fill="#BB906B" transform="translate(311,164)"/>
<path d="M0 0 C2.64 0.33 5.28 0.66 8 1 C7 3 7 3 5 6 C4.67 5.01 4.34 4.02 4 3 C1.99983534 1.79117904 1.99983534 1.79117904 0 1 C0 0.67 0 0.34 0 0 Z " fill="#B98E68" transform="translate(342,147)"/>
<path d="M0 0 C0 2 0 4 0 6 C-1.65 6 -3.3 6 -5 6 C-3.63016497 2.83884224 -3.0109362 2.0072908 0 0 Z " fill="#DAB28D" transform="translate(119,396)"/>
<path d="M0 0 C0.33 0.66 0.66 1.32 1 2 C1.66 2 2.32 2 3 2 C3.625 3.875 3.625 3.875 4 6 C3.34 6.66 2.68 7.32 2 8 C0.4375 5.6875 0.4375 5.6875 -1 3 C-0.67 2.01 -0.34 1.02 0 0 Z " fill="#DEAB78" transform="translate(227,358)"/>
<path d="M0 0 C0.99 0.33 1.98 0.66 3 1 C0.525 4.465 0.525 4.465 -2 8 C-2.66 7.01 -3.32 6.02 -4 5 C-3.01 5 -2.02 5 -1 5 C-0.67 3.35 -0.34 1.7 0 0 Z " fill="#B58D69" transform="translate(193,327)"/>
<path d="M0 0 C0.99 0 1.98 0 3 0 C2.45773019 3.79588866 0.79872437 5.47211993 -2 8 C-1.34 5.36 -0.68 2.72 0 0 Z " fill="#AE835F" transform="translate(257,298)"/>
<path d="M0 0 C0.33 0.66 0.66 1.32 1 2 C0.67 2.66 0.34 3.32 0 4 C-1.98 4 -3.96 4 -6 4 C-6 3.34 -6 2.68 -6 2 C-4.02 1.34 -2.04 0.68 0 0 Z " fill="#F9C17A" transform="translate(316,281)"/>
<path d="M0 0 C2.6855594 2.6855594 3.06049974 5.37621328 4 9 C2.68 8.34 1.36 7.68 0 7 C0 4.69 0 2.38 0 0 Z " fill="#AE8261" transform="translate(153,271)"/>
<path d="M0 0 C1.48199902 0.44909061 2.96055236 0.90956564 4.4375 1.375 C5.26121094 1.63023437 6.08492188 1.88546875 6.93359375 2.1484375 C9 3 9 3 10 5 C7.25 5.3125 7.25 5.3125 4 5 C1.625 2.5 1.625 2.5 0 0 Z " fill="#826950" transform="translate(310,260)"/>
<path d="M0 0 C2.475 0.495 2.475 0.495 5 1 C5.33 2.32 5.66 3.64 6 5 C4.35 4.67 2.7 4.34 1 4 C0.67 2.68 0.34 1.36 0 0 Z " fill="#F7C18E" transform="translate(313,225)"/>
<path d="M0 0 C-7.28571429 3.42857143 -7.28571429 3.42857143 -12 3 C-11.01 2.67 -10.02 2.34 -9 2 C-9 1.34 -9 0.68 -9 0 C-5.62182575 -0.84454356 -3.32534757 -1.10844919 0 0 Z " fill="#88654F" transform="translate(351,201)"/>
<path d="M0 0 C1.65 0.33 3.3 0.66 5 1 C3.35 2.98 1.7 4.96 0 7 C-0.66 5.68 -1.32 4.36 -2 3 C-1.34 2.01 -0.68 1.02 0 0 Z " fill="#D5A67B" transform="translate(176,174)"/>
<path d="M0 0 C0.99 0 1.98 0 3 0 C2.6875 1.875 2.6875 1.875 2 4 C1.01 4.66 0.02 5.32 -1 6 C-1.625 4.125 -1.625 4.125 -2 2 C-1.34 1.34 -0.68 0.68 0 0 Z " fill="#D3A77D" transform="translate(193,135)"/>
<path d="M0 0 C0.33 0 0.66 0 1 0 C1 1.65 1 3.3 1 5 C-0.98 5.99 -2.96 6.98 -5 8 C-3.6299034 5.0490227 -2.06764583 2.51713405 0 0 Z " fill="#9D7F65" transform="translate(169,383)"/>
<path d="M0 0 C0.103125 0.598125 0.20625 1.19625 0.3125 1.8125 C1.08876455 4.28243264 2.07088921 5.32251235 4 7 C1.03 6.505 1.03 6.505 -2 6 C-1.125 1.125 -1.125 1.125 0 0 Z " fill="#9A775F" transform="translate(225,361)"/>
<path d="M0 0 C0.99 0 1.98 0 3 0 C2.49396008 2.16874252 2.00016187 3.99967627 1 6 C0.34 6 -0.32 6 -1 6 C-1.042721 4.33388095 -1.04063832 2.66617115 -1 1 C-0.67 0.67 -0.34 0.34 0 0 Z " fill="#CDA37B" transform="translate(209,363)"/>
<path d="M0 0 C0.33 0.66 0.66 1.32 1 2 C-0.25 4.5625 -0.25 4.5625 -2 7 C-2.99 7.33 -3.98 7.66 -5 8 C-3.8141763 4.62496331 -2.72426311 2.35277269 0 0 Z " fill="#AB8460" transform="translate(214,322)"/>
<path d="M0 0 C1 2 1 2 0.3125 4.5 C-1.15567038 7.29651501 -2.09303901 7.93411431 -5 9 C-3.7508258 5.54074837 -2.32472205 2.85306797 0 0 Z " fill="#8F6F55" transform="translate(222,310)"/>
<path d="M0 0 C0.99 0.33 1.98 0.66 3 1 C2 3 1 5 0 7 C-0.66 7 -1.32 7 -2 7 C-1.42415568 4.61435923 -0.77772405 2.33317216 0 0 Z " fill="#B18C67" transform="translate(246,313)"/>
<path d="M0 0 C1.39195915 4.17587745 -0.17676781 6.13474776 -2 10 C-2.33 10 -2.66 10 -3 10 C-3.36923077 3.47692308 -3.36923077 3.47692308 -1.5 1.0625 C-1.005 0.711875 -0.51 0.36125 0 0 Z " fill="#896D59" transform="translate(394,278)"/>
<path d="M0 0 C2.97 0.99 5.94 1.98 9 3 C9 3.33 9 3.66 9 4 C6.69 4 4.38 4 2 4 C1.34 2.68 0.68 1.36 0 0 Z " fill="#A98A6E" transform="translate(338,273)"/>
<path d="M0 0 C2.64 0 5.28 0 8 0 C8 1.32 8 2.64 8 4 C2.25 2.25 2.25 2.25 0 0 Z " fill="#AA7355" transform="translate(341,261)"/>
<path d="M0 0 C1 2 1 2 0.44140625 4.1640625 C0.15136719 4.97617188 -0.13867188 5.78828125 -0.4375 6.625 C-0.72496094 7.44226563 -1.01242188 8.25953125 -1.30859375 9.1015625 C-1.53675781 9.72804687 -1.76492187 10.35453125 -2 11 C-4 8 -4 8 -4 6 C-3.34 6 -2.68 6 -2 6 C-1.855625 5.195625 -1.71125 4.39125 -1.5625 3.5625 C-1 1 -1 1 0 0 Z " fill="#997657" transform="translate(153,193)"/>
<path d="M0 0 C1.98 0.495 1.98 0.495 4 1 C3.1875 2.9375 3.1875 2.9375 2 5 C1.01 5.33 0.02 5.66 -1 6 C-0.67 4.02 -0.34 2.04 0 0 Z " fill="#BC9772" transform="translate(178,170)"/>
<path d="M0 0 C0.33 0.66 0.66 1.32 1 2 C-1.17508418 6.69360269 -1.17508418 6.69360269 -4.1875 7.8125 C-4.785625 7.874375 -5.38375 7.93625 -6 8 C-6 6 -6 6 -3.5625 3.4375 C-2.716875 2.633125 -1.87125 1.82875 -1 1 C-0.67 0.67 -0.34 0.34 0 0 Z " fill="#A0775A" transform="translate(189,158)"/>
<path d="M0 0 C0.33 0.66 0.66 1.32 1 2 C1.66 2.33 2.32 2.66 3 3 C1.68 4.32 0.36 5.64 -1 7 C-1.33 5.02 -1.66 3.04 -2 1 C-1.34 0.67 -0.68 0.34 0 0 Z " fill="#B28C6C" transform="translate(140,398)"/>
<path d="M0 0 C-0.25561323 2.3431213 -0.59270772 4.67843403 -1 7 C-1.99 7.495 -1.99 7.495 -3 8 C-3.33 5.69 -3.66 3.38 -4 1 C-2 0 -2 0 0 0 Z " fill="#D8AB81" transform="translate(157,376)"/>
<path d="M0 0 C-1.15173355 2.46800047 -2.04783565 4.04783565 -4 6 C-4.33 4.35 -4.66 2.7 -5 1 C-3 0 -3 0 0 0 Z " fill="#C89F72" transform="translate(218,356)"/>
<path d="M0 0 C0.99 0.33 1.98 0.66 3 1 C1.25 5.875 1.25 5.875 -1 7 C-0.67 4.69 -0.34 2.38 0 0 Z " fill="#9D7D5C" transform="translate(182,341)"/>
<path d="M0 0 C0.66 0 1.32 0 2 0 C1.6875 1.9375 1.6875 1.9375 1 4 C0.01 4.33 -0.98 4.66 -2 5 C-2 5.66 -2 6.32 -2 7 C-2.66 6.67 -3.32 6.34 -4 6 C-2.7260411 3.96166576 -1.38938077 1.96147874 0 0 Z " fill="#F2C18D" transform="translate(210,329)"/>
<path d="M0 0 C2.25 0.25 2.25 0.25 4 1 C2.02 2.32 0.04 3.64 -2 5 C-2.66 4.67 -3.32 4.34 -4 4 C-2.25 1.9375 -2.25 1.9375 0 0 Z " fill="#9E7457" transform="translate(312,322)"/>
<path d="M0 0 C1.32 0.33 2.64 0.66 4 1 C4.33 2.65 4.66 4.3 5 6 C4.01 6.495 4.01 6.495 3 7 C0 2.25 0 2.25 0 0 Z " fill="#9A755A" transform="translate(181,297)"/>
<path d="M0 0 C5.75 1.75 5.75 1.75 8 4 C5.66666667 4 3.33333333 4 1 4 C0.67 2.68 0.34 1.36 0 0 Z " fill="#E9BA8C" transform="translate(305,259)"/>
<path d="M0 0 C0.66 0 1.32 0 2 0 C2.625 3.375 2.625 3.375 3 7 C2.34 7.66 1.68 8.32 1 9 C0.67 6.03 0.34 3.06 0 0 Z " fill="#D6A673" transform="translate(186,194)"/>
<path d="M0 0 C0.99 0.33 1.98 0.66 3 1 C3 1.66 3 2.32 3 3 C3.99 3 4.98 3 6 3 C6 4.98 6 6.96 6 9 C3.59927045 6.11912454 1.52708963 3.43595166 0 0 Z " fill="#917359" transform="translate(356,163)"/>
<path d="M0 0 C-1.65 1.65 -3.3 3.3 -5 5 C-5.33 3.35 -5.66 1.7 -6 0 C-3.50907189 -1.24546405 -2.58919267 -0.7767578 0 0 Z " fill="#B07E5C" transform="translate(172,162)"/>
<path d="M0 0 C0 3 0 3 -1.5 4.6875 C-1.995 5.120625 -2.49 5.55375 -3 6 C-3.99 5.67 -4.98 5.34 -6 5 C-4.02 3.35 -2.04 1.7 0 0 Z " fill="#8C6C55" transform="translate(197,151)"/>
<path d="M0 0 C3 2 3 2 3.6875 5.125 C3.790625 6.07375 3.89375 7.0225 4 8 C0.21284635 5.55667506 0.21284635 5.55667506 -0.8125 2.875 C-0.874375 2.25625 -0.93625 1.6375 -1 1 C-0.67 0.67 -0.34 0.34 0 0 Z " fill="#D4AA84" transform="translate(348,149)"/>
<path d="M0 0 C1.32 1.32 2.64 2.64 4 4 C1.525 5.485 1.525 5.485 -1 7 C-1.04254356 5.00045254 -1.04080783 2.99958364 -1 1 C-0.67 0.67 -0.34 0.34 0 0 Z " fill="#C3946E" transform="translate(188,138)"/>
</svg>
